<?xml version="1.0" encoding="UTF-8" standalone="no"?>
<svg
   xmlns:dc="http://purl.org/dc/elements/1.1/"
   xmlns:cc="http://creativecommons.org/ns#"
   xmlns:rdf="http://www.w3.org/1999/02/22-rdf-syntax-ns#"
   xmlns:svg="http://www.w3.org/2000/svg"
   xmlns="http://www.w3.org/2000/svg"
   xmlns:sodipodi="http://sodipodi.sourceforge.net/DTD/sodipodi-0.dtd"
   xmlns:inkscape="http://www.inkscape.org/namespaces/inkscape"
   id="Layer_1"
   data-name="Layer 1"
   viewBox="0 0 248.63 95.52"
   version="1.1"
   sodipodi:docname="hms-logo.svg"
   inkscape:version="1.0.1 (3bc2e813f5, 2020-09-07)">
  <metadata
     id="metadata29">
    <rdf:RDF>
      <cc:Work
         rdf:about="">
        <dc:format>image/svg+xml</dc:format>
        <dc:type
           rdf:resource="http://purl.org/dc/dcmitype/StillImage" />
      </cc:Work>
    </rdf:RDF>
  </metadata>
  <sodipodi:namedview
     pagecolor="#ffffff"
     bordercolor="#666666"
     borderopacity="1"
     objecttolerance="10"
     gridtolerance="10"
     guidetolerance="10"
     inkscape:pageopacity="0"
     inkscape:pageshadow="2"
     inkscape:window-width="1280"
     inkscape:window-height="960"
     id="namedview27"
     showgrid="false"
     inkscape:zoom="3.0971293"
     inkscape:cx="110.48625"
     inkscape:cy="84.360137"
     inkscape:window-x="0"
     inkscape:window-y="27"
     inkscape:window-maximized="1"
     inkscape:current-layer="Layer_1" />
  <defs
     id="defs4">
    <style
       id="style2">.cls-1{fill:#06517d;}.cls-2{fill:#2e6188;}.cls-3{fill:none;stroke:#231f20;stroke-miterlimit:10;}</style>
  </defs>
  <title
     id="title6">hms-logo</title>
  <g
     id="g47"
     transform="matrix(1.0073671,0,0,1.0197186,-2.01746,-2.0426189)">
    <path
       class="cls-2"
       d="M 90.19,27.9 V 28 A 46.7,46.7 0 0 0 2.87,51 c 0,1.11 0,2.21 0.13,3.3 V 51 h 13.88 a 33.88,33.88 0 0 1 67.75,0 h 23.26 q -0.21,-5.44 -0.21,-8.3 c 0,-0.4 0.18,-0.6 0.55,-0.6 0.53,0 1.35,0 2.44,0.08 1.09,0.08 1.9,0.08 2.43,0.08 0.53,0 1.4,0 2.52,-0.08 1.12,-0.08 2,-0.08 2.52,-0.08 0.29,0 0.44,0.16 0.44,0.49 q 0,2 -0.28,6.09 c -0.06,0.84 -0.11,1.61 -0.15,2.32 h 14 q 0,-1 -0.09,-2.13 -0.19,-3.94 -0.19,-5.93 0,-0.84 0.66,-0.84 c 0.5,0 1.27,0 2.31,0.08 1.04,0.08 1.81,0.08 2.33,0.08 0.52,0 1.27,0 2.31,-0.08 1.04,-0.08 1.81,-0.08 2.33,-0.08 0.52,0 0.76,0.22 0.76,0.65 0,1.88 -0.07,4.64 -0.2,8.25 h 18 c 0,-0.39 0,-0.78 0,-1.19 0,-1.51 -0.09,-3.74 -0.23,-6.71 v -0.46 c 0,-0.36 0.35,-0.54 1.1,-0.54 0.95,0 2.39,0 4.3,-0.1 1.91,-0.1 3.35,-0.09 4.31,-0.09 0.19,0 0.46,0.38 0.8,1.14 l 3.5,7.95 h 10.9 l 3.62,-8 c 0.29,-0.71 0.61,-1.06 1,-1.06 0.51,0 1.27,0 2.28,0.08 1.01,0.08 1.79,0.08 2.31,0.08 0.52,0 1.1,0 2,-0.14 0.9,-0.14 1.56,-0.13 2,-0.13 0.44,0 0.79,0.22 0.79,0.65 0,1.95 -0.07,4.8 -0.19,8.52 h 17.84 a 10.13,10.13 0 0 1 4.25,-6.48 19.29,19.29 0 0 1 8.79,-3.52 h 0.44 c 0.26,0 0.47,0.22 0.63,0.65 q 0.67,2 3.16,7.17 a 0.6,0.6 0 0 1 0.07,0.27 0.41,0.41 0 0 1 -0.47,0.46 c -0.13,0 -1.28,-0.17 -1.46,-0.17 a 6,6 0 0 0 -3.28,0.9 3.77,3.77 0 0 0 -0.9,0.76 h 21.2 V 27.9 Z"
       transform="translate(-0.5,-2.18)"
       id="path10" />
    <g
       id="g37">
      <path
         class="cls-1"
         d="m 174.15,51 4.13,9.44 c 0.54,1.18 1,1.77 1.36,1.77 q 0.29,0 1.23,-2 1.6,-3.49 4.18,-9.17 z"
         transform="translate(-0.5,-2.18)"
         id="path8" />
      <path
         class="cls-1"
         d="m 118.15,51 c -0.09,1.58 -0.14,2.84 -0.14,3.77 0,0.64 0.16,1 0.5,1.12 a 49.7,49.7 0 0 0 6.67,0.21 50.21,50.21 0 0 0 6.47,-0.21 c 0.42,-0.11 0.63,-0.48 0.63,-1.12 0,-0.92 0,-2.18 -0.09,-3.77 z"
         transform="translate(-0.5,-2.18)"
         id="path12" />
      <path
         class="cls-1"
         d="m 142.41,51 c 0,0.38 0,0.77 0,1.17 -0.16,4.2 -0.25,7.34 -0.25,9.44 0,2.1 0.1,4.93 0.28,8.88 0.05,1.15 0.1,2.19 0.13,3.17 l 17.75,-0.13 c 0,-0.94 0.08,-1.94 0.13,-3 0.18,-4 0.27,-6.92 0.27,-8.89 0,-1.97 -0.07,-5.5 -0.22,-10.61 z"
         transform="translate(-0.5,-2.18)"
         id="path14" />
      <path
         class="cls-1"
         d="m 218.29,59.05 a 11.39,11.39 0 0 1 -1.8,-6.25 10.19,10.19 0 0 1 0.16,-1.76 h -17.84 c 0,0.35 0,0.69 0,1.05 -0.14,4.24 -0.22,7.43 -0.22,9.56 q 0,3 0.24,8.88 c 0,1 0.07,1.89 0.1,2.75 l 16.4,-0.13 a 11.6,11.6 0 0 0 5.4,-1.89 4.48,4.48 0 0 0 2.71,-4.18 6.52,6.52 0 0 0 -1.77,-3.94 q -3.13,-3.69 -3.38,-4.09 z"
         transform="translate(-0.5,-2.18)"
         id="path16" />
      <path
         class="cls-1"
         d="m 227.13,53.16 a 7.26,7.26 0 0 0 1.87,4.07 c 2.21,2.89 3.36,4.41 3.47,4.56 a 11.24,11.24 0 0 1 1.85,5.94 11.84,11.84 0 0 1 -1.2,5.27 l 16,-0.13 V 51 h -21.2 a 3.08,3.08 0 0 0 -0.79,2.16 z"
         transform="translate(-0.5,-2.18)"
         id="path18" />
      <path
         class="cls-1"
         d="m 107.94,52.19 c 0,-0.39 0,-0.77 0,-1.15 H 84.63 a 33.88,33.88 0 1 1 -67.75,0 H 3 V 47.7 C 2.92,48.79 2.87,49.89 2.87,51 a 46.7,46.7 0 0 0 87.32,23 v 0.07 L 107.78,74 c 0,-1.06 0.09,-2.18 0.15,-3.44 q 0.27,-5.93 0.27,-8.88 0,-3.18 -0.26,-9.49 z"
         transform="translate(-0.5,-2.18)"
         id="path20" />
    </g>
  </g>
</svg>
