<?xml version="1.0" encoding="UTF-8" standalone="no"?>
<svg
   xmlns:dc="http://purl.org/dc/elements/1.1/"
   xmlns:cc="http://creativecommons.org/ns#"
   xmlns:rdf="http://www.w3.org/1999/02/22-rdf-syntax-ns#"
   xmlns:svg="http://www.w3.org/2000/svg"
   xmlns="http://www.w3.org/2000/svg"
   xmlns:sodipodi="http://sodipodi.sourceforge.net/DTD/sodipodi-0.dtd"
   xmlns:inkscape="http://www.inkscape.org/namespaces/inkscape"
   version="1.1"
   id="svg2"
   xml:space="preserve"
   width="600"
   height="500"
   viewBox="0 0 600 499.99999"
   sodipodi:docname="top-face-image.svg"
   inkscape:version="1.0.1 (3bc2e813f5, 2020-09-07)"><metadata
     id="metadata8"><rdf:RDF><cc:Work
         rdf:about=""><dc:format>image/svg+xml</dc:format><dc:type
           rdf:resource="http://purl.org/dc/dcmitype/StillImage" /><dc:title></dc:title></cc:Work></rdf:RDF></metadata><defs
     id="defs6" /><sodipodi:namedview
     pagecolor="#ffffff"
     bordercolor="#666666"
     borderopacity="1"
     objecttolerance="10"
     gridtolerance="10"
     guidetolerance="10"
     inkscape:pageopacity="0"
     inkscape:pageshadow="2"
     inkscape:window-width="1280"
     inkscape:window-height="960"
     id="namedview4"
     showgrid="false"
     inkscape:zoom="0.51029539"
     inkscape:cx="299.1382"
     inkscape:cy="391.48354"
     inkscape:window-x="0"
     inkscape:window-y="27"
     inkscape:window-maximized="1"
     inkscape:current-layer="g10"
     inkscape:document-rotation="0"
     showguides="false" /><g
     inkscape:groupmode="layer"
     id="layer1"
     inkscape:label="Queue &amp; Receptionist" /><g
     inkscape:groupmode="layer"
     id="layer2"
     inkscape:label="Sofa Boy" /><g
     id="g10"
     inkscape:groupmode="layer"
     inkscape:label="Stars &amp; Services"
     transform="matrix(1.3333333,0,0,-1.3333333,0,2666.6667)"><g
       id="g14"
       transform="scale(0.238037)" /><g
       id="g478"
       transform="matrix(0.104246,0,0,0.104246,991.08179,0)" /><g
       id="g2604"
       transform="matrix(0.19805566,0,0,0.19805566,-158.92258,1622.0137)"
       inkscape:export-xdpi="154.77"
       inkscape:export-ydpi="154.77"><path
         d="m 2243.1277,1529.1867 c -1.456,-10.44 1.816,-28.3866 9.9854,-56.4666 -16.1787,0.04 -29.7814,-7.1333 -46.3161,-6.88 -4.516,26.4133 -11.5106,69.7733 -11.5106,69.7733 l -0.7493,34.28 115.1293,0.8667 c 0,0 -0.9574,0.4933 -34.9014,-20.9467 -2.5093,-1.5867 -30.2293,-10.5467 -31.6373,-20.6267"
         style="fill:#f7a491;fill-opacity:1;fill-rule:nonzero;stroke:none;stroke-width:0.133333"
         id="path110"
         transform="matrix(0.75000002,0,0,-0.75000002,0,2000.0001)" /><path
         d="m 2193.9864,1578.7067 h 118.8493 c 4.3947,-0.4 5.4667,-3.9866 3.9413,-6.2 -3.1373,-4.5466 -26.3173,-15.4666 -41.9013,-22.72 -27.336,2.8667 -75.3826,-8.3733 -79.696,-14.7066 -7.4973,20.96 -3.6373,43.08 -1.1933,43.6266"
         style="fill:#3c8f7c;fill-opacity:1;fill-rule:nonzero;stroke:none;stroke-width:0.133333"
         id="path112"
         transform="matrix(0.75000002,0,0,-0.75000002,0,2000.0001)" /><path
         d="m 2099.7091,1529.1867 c -1.4561,-10.44 -3.9334,-23.5066 -0.3027,-58.3066 -16.1773,0.04 -31.5733,-2.9867 -48.108,-2.7467 0,27.1733 0.5693,67.48 0.5693,67.48 l -0.7493,34.28 115.1306,0.8667 c 0,0 -0.9586,0.4933 -34.9013,-20.9467 -2.5106,-1.5867 -30.2307,-10.5467 -31.6386,-20.6267"
         style="fill:#f7a491;fill-opacity:1;fill-rule:nonzero;stroke:none;stroke-width:0.133333"
         id="path114"
         transform="matrix(0.75000002,0,0,-0.75000002,0,2000.0001)" /><path
         d="m 2050.5677,1578.7067 h 118.8494 c 4.3946,-0.4 5.4653,-3.9866 3.9413,-6.2 -3.1373,-4.5466 -26.3174,-15.4666 -41.9013,-22.72 -27.3361,2.8667 -75.3827,-8.3733 -79.696,-14.7066 -7.4974,20.96 -3.6374,43.08 -1.1934,43.6266"
         style="fill:#3c8f7c;fill-opacity:1;fill-rule:nonzero;stroke:none;stroke-width:0.133333"
         id="path116"
         transform="matrix(0.75000002,0,0,-0.75000002,0,2000.0001)" /><path
         d="m 2183.3771,535.00011 43.3053,-45.69333 c 0,0 46.3533,25.49333 100.3906,49.85333 14.8494,-25.85334 39.1027,-110.90667 40.4094,-114.96 1.3066,-4.06667 -28.4,-55.16 -21.76,-56.44 6.6533,-1.28 15.28,27.28 22.2933,24.38667 7.0267,-2.89334 25.0933,-69.16 29.32,-65.54667 7.9067,6.77334 -9.5067,41.22667 -5.3333,43.73333 4.16,2.50667 14.7466,-38.18666 22.8,-36.45333 8.04,1.73334 -13.6,37.05333 -11.2267,40.44 2.3733,3.4 25,-29.73333 29.68,-22.06666 2.5333,4.17333 -20.88,28.85333 -16.0667,31.61333 4.8267,2.76 25.92,-12.78667 28.44,-7.74667 2.52,5.04 -19.6933,10.28 -25.8533,23.02667 -6.16,12.74666 -17.3733,17.70666 -21.0933,41.8 -3.72,24.08 -13.8934,152.87999 -40.1467,163.22666 -22.92,9.02667 -175.1586,-69.17333 -175.1586,-69.17333"
         style="fill:#f7a491;fill-opacity:1;fill-rule:nonzero;stroke:none;stroke-width:0.133333"
         id="path118"
         transform="matrix(0.75000002,0,0,-0.75000002,0,2000.0001)" /><path
         d="m 2211.3557,781.42677 -35.1187,19.58666 -71.384,109.16 127.6627,300.46667 c 0,0 -14.3773,45.2 -19.0626,67.7733 -4.9014,23.6134 -16.92,226.3467 -16.92,226.3467 l 54.4613,0.92 c 0,0 51.732,-215.8267 60.492,-285.88 10.6386,-85.0667 -54.1374,-287.65334 -54.1374,-287.65334 -12.08,-41.33333 -38.1239,-126.37333 -38.1239,-126.37333 0,0 -6.3721,-20.72 -7.8694,-24.34666"
         style="fill:#355389;fill-opacity:1;fill-rule:nonzero;stroke:none;stroke-width:0.133333"
         id="path120"
         transform="matrix(0.75000002,0,0,-0.75000002,0,2000.0001)" /><path
         d="m 2089.1197,740.4401 c 0,0 3.6307,25.66667 -10.8933,54.96 -8.852,17.85333 -24.1454,31.85333 -35.0973,53.72 -20.7254,41.38666 -31.98,100.17333 -24.2054,137.96 0,0 42.8493,163.64 41.1494,223.44 -0.6281,22.0533 -8.1934,61.7867 -13.0334,88.64 -4.28,23.7467 -5.7266,202.8666 -5.7266,202.8666 l 60.8173,-1.84 46.5733,-288.9333 19.6894,-256.82664 42.9573,-172.98666 -122.2307,-41"
         style="fill:#466eb6;fill-opacity:1;fill-rule:nonzero;stroke:none;stroke-width:0.133333"
         id="path122"
         transform="matrix(0.75000002,0,0,-0.75000002,0,2000.0001)" /><path
         d="m 2224.3277,358.72011 c -5.616,-26.52 -11.412,-53.14666 -37.768,-72.24 -21.328,-15.46666 -44.2467,-19.88 -68.544,-11.06666 -68.844,24.96 -31.8147,79.6 -117.2467,137.82666 -26.5453,18.09333 -36.6213,24.4 -55.6733,48.52 -26.6653,33.74666 -41.24,79.02666 -27.836,116.30666 27.72,77.09333 113.6147,99.37333 158.5467,83.02667 83.6347,-30.42667 153.312,-136.49333 157.9426,-165.44 4.9561,-30.97333 -5.8053,-119.85333 -9.4213,-136.93333"
         style="fill:#13375b;fill-opacity:1;fill-rule:nonzero;stroke:none;stroke-width:0.133333"
         id="path124"
         transform="matrix(0.75000002,0,0,-0.75000002,0,2000.0001)" /><path
         d="m 2230.7064,563.70677 c 19.3813,8.96 54.48,22.4 54.48,22.4 l 19.9693,-63.14666 c -112.8667,-64.21333 -104.012,-53.85333 -188.724,-52.58667 -67.6746,0.97334 -96.0373,-11.96 -154.3147,145.36 0,0 44.3627,19.93333 60.248,26.33333 6.8307,-19.45333 19.1774,-58.24 26.3747,-36.12 10.876,33.4 18.8427,67.13333 24.184,101.84 3.392,20.58667 10.7747,46.93333 6.8947,67.89333 0,0 46.0893,9.49333 81.2933,11.04 0.099,0 0.2013,0 0.3014,-0.0133 17.0133,-0.42667 34.432,-1.93334 49.9453,-5.28 0,0 6.9013,-145.93333 10.5907,-152.02667 4.084,-6.73333 21.3306,-28.51999 6.656,-61.10666 -2.5947,-5.76 -1.896,-6.44 2.1013,-4.58667"
         style="fill:#50bfa5;fill-opacity:1;fill-rule:nonzero;stroke:none;stroke-width:0.133333"
         id="path126"
         transform="matrix(0.75000002,0,0,-0.75000002,0,2000.0001)" /><path
         d="m 2127.0371,405.41344 c 0,0 -5.3907,43.52 -8.5681,58.62667 -3.3239,15.81333 -8.3253,65.61333 24.46,73.69333 32.784,8.08 22.6534,-54.17333 23.1947,-70.25333 0.5427,-16.08 9.8334,-72.13333 9.8334,-72.13333 l -48.92,10.06666"
         style="fill:#f7a491;fill-opacity:1;fill-rule:nonzero;stroke:none;stroke-width:0.133333"
         id="path128"
         transform="matrix(0.75000002,0,0,-0.75000002,0,2000.0001)" /><path
         d="m 2125.253,419.30678 c 0.3347,0.2 0.6454,0.41333 0.9867,0.6 18.1187,10.38666 33.8907,8.76 45.7293,0.66666 2.1134,-13.90666 3.9881,-25.22666 3.9881,-25.22666 l -48.92,10.06666 c 0,0 -0.7187,5.8 -1.784,13.89334"
         style="fill:#f47458;fill-opacity:1;fill-rule:nonzero;stroke:none;stroke-width:0.133333"
         id="path130"
         transform="matrix(0.75000002,0,0,-0.75000002,0,2000.0001)" /><path
         d="m 2136.893,292.08011 c 0,0 -19.2119,5.4 -30.2893,24.46667 -11.0786,19.08 -16.604,73.88 24.1747,97.26666 40.7786,23.37334 69.724,-14.09333 68.4906,-49.13333 -1.2333,-35.04 -10.9973,-81.4 -62.3759,-72.6"
         style="fill:#f7a491;fill-opacity:1;fill-rule:nonzero;stroke:none;stroke-width:0.133333"
         id="path132"
         transform="matrix(0.75000002,0,0,-0.75000002,0,2000.0001)" /><path
         d="m 2208.2784,349.64011 c 0.452,9.10667 -3.444,16.70667 -8.704,16.97333 -5.26,0.26667 -9.8907,-6.89333 -10.3427,-15.99999 -0.4533,-9.12 3.444,-16.72 8.7027,-16.98667 5.26,-0.26667 9.8907,6.90667 10.344,16.01333"
         style="fill:#f7a491;fill-opacity:1;fill-rule:nonzero;stroke:none;stroke-width:0.133333"
         id="path134"
         transform="matrix(0.75000002,0,0,-0.75000002,0,2000.0001)" /><path
         d="m 2142.6664,290.62678 c 0,0 -21.9827,57.32 -43.4973,63.42667 -21.5147,6.10666 -19.7961,34.29333 -19.7961,34.29333 0,0 -2.7546,-65.16 16.8974,-81.13333 19.6533,-15.97334 46.396,-16.58667 46.396,-16.58667"
         style="fill:#13375b;fill-opacity:1;fill-rule:nonzero;stroke:none;stroke-width:0.133333"
         id="path136"
         transform="matrix(0.75000002,0,0,-0.75000002,0,2000.0001)" /><path
         d="m 2108.3957,365.26678 c 3.3173,8.94666 1.1427,18.05333 -4.86,20.30666 -6.0013,2.26667 -13.5573,-3.16 -16.876,-12.12 -3.3173,-8.96 -1.1413,-18.05333 4.86,-20.31999 6.0027,-2.25334 13.5573,3.17333 16.876,12.13333"
         style="fill:#f7a491;fill-opacity:1;fill-rule:nonzero;stroke:none;stroke-width:0.133333"
         id="path138"
         transform="matrix(0.75000002,0,0,-0.75000002,0,2000.0001)" /><path
         d="m 2145.981,817.01343 c 0.7974,0.10667 4.3934,-0.36 7.3347,-0.29333 4.0654,0.08 7.624,0.69333 7.624,0.69333 0,0 1.5974,-1.38666 4.648,-2.8 1.2707,-0.57333 3.34,-0.8 4.756,-1.45333 1.452,-0.68 2.6867,-1.92 4.0667,-2.53333 3.5933,-1.56 6.8986,-1.93334 7.988,-0.04 0.9067,1.56 -19.0987,13.8 -19.0987,13.8 -18.5173,0.10666 -37.9066,9.54666 -80.8226,-18.45334 -24.5081,-10.70666 -143.528,-69.49333 -145.924,-82.30666 -1.344,-7.18667 16.92,-62.85333 31.8426,-105.10666 11.5093,5.14666 35.9814,16.03999 49.6694,21.77333 -12.5627,26.62666 -27.376,61.90666 -25.8147,66.22666 0.4,1.13334 1.888,3.16 82.348,55.85333 2.0333,1.30667 4.1026,2.68 6.208,4.06667 5.664,3.69333 11.728,7.65333 18.1546,11.82667 l 22.9467,-2.38667 c 0,0 36.3453,2.50667 37.4347,6.64 0.472,1.89333 -2.5427,2.82667 -6.2454,3.37333 h -0.1093 c -0.544,0.08 -1.0893,0.14667 -1.6333,0.22667 -0.036,0 -0.073,0 -0.073,0 -3.9934,0.46667 -8.2054,0.53333 -9.2227,0.90667 -1.1613,0.4 -3.4853,1.30666 -5.4813,2.68 22.656,9.25333 20.9133,5.96 28.4293,5.48 1.888,-0.14667 3.8853,0.4 5.664,0.25333 3.0493,-0.25333 5.4827,-2.06667 7.8427,-2.21333 3.4493,-0.17334 6.2453,1.41333 6.8626,2.06666 0.7987,0.8 -0.6906,1.97334 -3.5946,3.28 -17.5014,7.58667 -31.988,4.68 -36.636,5.8 -3.1227,0.77334 2.5773,1.93334 11.4733,0.98667 2.2147,-0.21333 5.12,0.57333 8.0613,-0.10667 1.96,-0.44 3.7387,-1.70666 5.664,-2.18666 1.7787,-0.42667 3.5934,-0.4 5.0827,-0.68 1.9613,-0.37334 4.684,-1.85334 6.2453,-2.04 5.8094,-0.65334 8.6414,0.36 9.2947,0.90666 1.344,1.2 -25.052,11.33334 -25.052,11.33334 0,0 -18.192,2.61333 -22.2587,2.61333 0,0 -2.432,1.08 2.3254,1.81333"
         style="fill:#f7a491;fill-opacity:1;fill-rule:nonzero;stroke:none;stroke-width:0.133333"
         id="path140"
         transform="matrix(0.75000002,0,0,-0.75000002,0,2000.0001)" /><path
         d="m 2133.5277,587.04011 -61.3733,4.73333 -2.292,-29.77333 61.3733,-4.73334 2.292,29.77334"
         style="fill:#ffffff;fill-opacity:1;fill-rule:nonzero;stroke:none;stroke-width:0.133333"
         id="path142"
         transform="matrix(0.75000002,0,0,-0.75000002,0,2000.0001)" /><g
         id="g144"
         transform="matrix(0.101677,0,0,0.101677,750.78182,382.89998)"><path
           d="M 16154.6,3909.45 6019.08,3924.79 V 9937.95 H 16300 l -145.4,-6028.5"
           style="fill:#184655;fill-opacity:1;fill-rule:nonzero;stroke:none"
           id="path146" /></g><g
         id="g148"
         transform="matrix(0.102152,0,0,0.102152,750.78182,382.89998)"><path
           d="M 16300,8462.97 H 5781.01 V 9892.71 H 16300 V 8462.97"
           style="fill:#13375b;fill-opacity:1;fill-rule:nonzero;stroke:none"
           id="path150" /></g><g
         id="g2076"
         transform="matrix(0.75000002,0,0,-0.75000002,133.51598,2002.9101)"><path
           d="m 1757.4931,1435.2401 c 0,0 181.0973,-134.4267 205.9133,-192.36 24.816,-57.9333 -26.3533,-51.3867 -26.3533,-51.3867 0,0 73.1266,-103.6133 53.7173,-137.8533 -19.408,-34.24 -59.792,9.4933 -59.792,9.4933 0,0 33.924,-140.1733 4.428,-147.95997 -54.9387,-14.53333 -100.02,136.31997 -100.02,136.31997 0,0 4.044,-62.62664 -30.344,-54.18664 -51.8587,12.72004 -24.4267,147.54664 -24.4267,147.54664 0,0 -16.5293,-23.9066 -44.9693,-1.16 -51.0267,40.8134 21.8467,291.5467 21.8467,291.5467"
           style="fill:#3c8f7c;fill-opacity:1;fill-rule:nonzero;stroke:none;stroke-width:0.133333"
           id="path152" /><path
           d="m 1804.4597,1110.1734 c -30.0173,-17.44 -48.2226,14.1734 -48.2226,14.1734 0,0 23.1106,-89.44 -25.4587,-104.68 -32.2053,-10.12 -32.156,49.72 -32.156,49.72 0,0 -33.744,-146.2667 -86.8947,-135.77337 l 133.996,535.59997 c 9.596,-30.3866 112.984,-327.52 58.736,-359.04"
           style="fill:#50bfa5;fill-opacity:1;fill-rule:nonzero;stroke:none;stroke-width:0.133333"
           id="path160" /><g
           id="g2066"><path
             d="m 1727.9744,1147.1868 c 28.44,-22.7467 52.6413,-2.3334 52.6413,-2.3334 0,0 -27.432,-134.8266 24.4267,-147.54664 34.388,-8.44 30.344,54.18664 30.344,54.18664 0,0 45.0813,-150.8533 100.02,-136.31997 l -179.2613,519.63997 c -8.016,-32.4533 -75.8334,-249.5066 -28.1707,-287.6266"
             style="fill:#96d9c9;fill-opacity:1;fill-rule:nonzero;stroke:none;stroke-width:0.133333"
             id="path154" /><path
             d="m 1757.7371,1430.5601 c 0,0 185.5826,-0.1867 223.8866,-32.36 38.3054,-32.16 -8.68,-34.6667 -8.68,-34.6667 0,0 88.6934,-47.08 87.3987,-78.4666 -1.2947,-31.4 -31.36,-25.08 -31.36,-25.08 0,0 61.3013,-54.9067 48.716,-81.5334 -19.3413,-40.9066 -107.016,36.68 -107.016,36.68 0,0 6.704,-31.12 -20.488,-37.6133 -41.008,-9.8 -82.612,106.7867 -82.612,106.7867 0,0 19.612,-52.52 -8.5587,-46.68 -50.544,10.4666 -101.2866,192.9333 -101.2866,192.9333"
             style="fill:#50bfa5;fill-opacity:1;fill-rule:nonzero;stroke:none;stroke-width:0.133333"
             id="path156" /><path
             d="m 1750.0291,1440.8934 c 0,0 -164.7187,-140.56 -184.8174,-197.1866 -20.0973,-56.6267 28.1907,-47.2934 28.1907,-47.2934 0,0 -63.2907,-103.0133 -42.7493,-134.4133 20.544,-31.4 56.3133,12.6533 56.3133,12.6533 0,0 -23.7747,-135.4133 4.7613,-141.03997 53.1507,-10.49333 86.8947,135.77337 86.8947,135.77337 0,0 -0.049,-59.84 32.156,-49.72 48.5693,15.24 14.292,141.8666 14.292,141.8666 0,0 17.9267,-47.3333 43.6053,-23.9733 46.0747,41.92 -38.6466,303.3333 -38.6466,303.3333"
             style="fill:#3c8f7c;fill-opacity:1;fill-rule:nonzero;stroke:none;stroke-width:0.133333"
             id="path158" /><path
             d="m 1733.4411,1420.7201 c 0,0 -180.9427,0.067 -206.112,-2.8667 -25.168,-2.92 2.6386,-25.3866 2.6386,-25.3866 0,0 -56.3026,2.0533 -64.884,-11.64 -8.5826,-13.6934 14.4134,-19.0934 14.4134,-19.0934 0,0 -56.0707,-16.2533 -53.3947,-28.1733 4.9867,-22.2133 66.9133,-7.7333 66.9133,-7.7333 0,0 -23,-11.16 -13.652,-21.5467 14.0974,-15.6533 74.3054,26.9067 74.3054,26.9067 0,0 -20.6574,-39.3734 -9.2654,-48.1734 47.7387,-36.8533 189.0374,137.7067 189.0374,137.7067"
             style="fill:#96d9c9;fill-opacity:1;fill-rule:nonzero;stroke:none;stroke-width:0.133333"
             id="path162" /><path
             d="m 1602.8197,1624.3867 h 301.1533 c 38.356,-35.0266 61.724,-83.28 60.8707,-136.1999 -0.4307,-26.7334 -5.9307,-50.04 -17.4066,-72.92 l -388.2787,4.3733 c -10.7307,23.24 -16.488,48.7733 -16.0587,75.4933 0.8134,50.4267 23.4574,95.8933 59.72,129.2533"
             style="fill:#f47458;fill-opacity:1;fill-rule:nonzero;stroke:none;stroke-width:0.133333"
             id="path164" /></g></g><path
         d="m 2998.1357,673.09344 c -1.3467,4.96 -2.12,6.6 -3.8267,9.92 -11.04,21.45333 -36.6666,52.05333 -36.6666,52.05333 l -19.8134,-47.65333 c 0,0 3.2267,-14.96 8.8267,-36.34667 19.1467,5.33333 37.3733,8.42667 51.48,22.02667"
         style="fill:#f8a492;fill-opacity:1;fill-rule:nonzero;stroke:none;stroke-width:0.133333"
         id="path182"
         transform="matrix(0.75000002,0,0,-0.75000002,0,2000.0001)" /><path
         d="m 2884.509,631.7601 c 0,0 110.5467,50.8 114.12,49.82667 2.2934,-0.62667 45.3334,-77.50666 45.8,-149.8 0.2134,-33.4 -32.28,-73.57333 -68.5333,-65.62666 -18.2533,4 -17.9733,9.42667 -44.9867,51.29333 -27,41.88 -46.4,114.30666 -46.4,114.30666"
         style="fill:#13375b;fill-opacity:1;fill-rule:nonzero;stroke:none;stroke-width:0.133333"
         id="path184"
         transform="matrix(0.75000002,0,0,-0.75000002,0,2000.0001)" /><path
         d="m 2790.149,1542.5867 c 0,0 2.6267,46.3334 2.64,46.4267 0.9734,5.88 4.76,20.4133 4.76,25.76 0,20.0933 -89.3733,-17.0533 -69.3466,-25.96 1.8133,-0.8 11.3066,-6.8933 11.9066,-13.7333 0.92,-10.5334 -2.32,-33.16 -2.32,-33.16 l 52.36,0.6666"
         style="fill:#f7a491;fill-opacity:1;fill-rule:nonzero;stroke:none;stroke-width:0.133333"
         id="path186"
         transform="matrix(0.75000002,0,0,-0.75000002,0,2000.0001)" /><path
         d="m 2728.429,1588.6267 c 0,0 20.9734,6.1467 31.7334,7.68 10.7466,1.5334 24.9066,-11.4 32.52,-7.9066 8.36,3.8533 8.04,38.4666 8.04,38.4666 0,0 -110.0134,3.84 -144.1867,-0.3466 -13.08,-1.5867 28.9867,-23.5867 71.8933,-37.8934"
         style="fill:#466eb6;fill-opacity:1;fill-rule:nonzero;stroke:none;stroke-width:0.133333"
         id="path188"
         transform="matrix(0.75000002,0,0,-0.75000002,0,2000.0001)" /><path
         d="m 2973.0024,1542.5867 c 0,0 2.6266,46.3334 2.64,46.4267 0.96,5.88 4.76,20.4133 4.76,25.76 0,20.0933 -89.3867,-17.0533 -69.3467,-25.96 1.8133,-0.8 14.12,-11.4533 14.72,-18.28 0.92,-10.5333 0.4267,-27.3067 0.4267,-27.3067 l 46.8,-0.64"
         style="fill:#f7a491;fill-opacity:1;fill-rule:nonzero;stroke:none;stroke-width:0.133333"
         id="path190"
         transform="matrix(0.75000002,0,0,-0.75000002,0,2000.0001)" /><path
         d="m 2911.269,1588.6267 c 0,0 20.9867,6.1467 31.7334,7.68 10.7466,1.5334 24.92,-11.4 32.52,-7.9066 8.3733,3.8533 8.7066,38.4666 8.7066,38.4666 0,0 -112.2,4.44 -144.84,-0.3466 -13.04,-1.9067 28.9867,-23.5867 71.88,-37.8934"
         style="fill:#466eb6;fill-opacity:1;fill-rule:nonzero;stroke:none;stroke-width:0.133333"
         id="path192"
         transform="matrix(0.75000002,0,0,-0.75000002,0,2000.0001)" /><path
         d="m 2949.0557,599.09344 -113.2667,84.97333 c -1.0133,0.37333 -3.08,1.21333 -6.24,2.48 -11.44,4.58667 -35.2666,14.13333 -59.0133,22.61333 l -0.2533,0.0933 c -8.32,2.72 -22.7734,8.29333 -36.7734,13.68 -15.5466,6 -34.84,13.44 -38.1733,13.84 -0.5867,-0.16 -1.64,-0.48 -3.0267,-0.89334 -8.1466,-2.45333 -27.3733,-5.32 -35.7066,-6.25333 -5.32,-0.58667 -18.16,-0.77333 -17.84,5.09333 0.4933,9.22667 13.04,4.13334 21.2533,7.94667 -5.2533,1.85333 -15.6667,5.58667 -26.2933,7.84 l -24.8934,2.89333 c -1.88,0.4 -15.76,-0.73333 -15.4133,5.73333 l 0.027,0.30667 c 0.7733,5.78667 15.4133,4.86667 40.3333,5.93333 -2.8133,0.92 -6.2,1.86667 -9.3333,2.61334 -1.7067,0.0267 -9.0934,1.6 -12.9734,2.68 -6.9733,-0.78667 -17.8266,0.48 -16.4266,7.30666 0.7066,3.42667 15.8933,2.32 15.8933,2.32 2.08,-0.14666 18.1467,-1.21333 21.32,-1.29333 -5.3467,1.01333 -28.2,5.01333 -27.9067,10.42667 0.24,4.48 6.4534,4.50666 11.3467,4.14666 2.8933,-0.21333 27.6533,-4.38666 30.5467,-4.69333 -3.6667,2.32 -28.1734,2.34667 -28.0534,4.44 0.4667,8.73333 44.6,3.14667 46.4667,2.66667 5.5067,-1.38667 14.72,-3.72 22.8267,-8.76 9.7333,-6.02667 25.2533,-14.45334 27.6266,-15.74667 4.9334,-1.12 22.6934,-4.72 45.04,-9.24 9.56,-1.94667 20.04,-4.06667 30.8934,-6.28 l -0.013,-0.08 c 2.3467,-0.42666 9.7867,-2.46666 37.7067,-10.21333 38.2,-10.61333 39.8267,-11.58667 40.52,-12 6.7733,-4.06667 125.0267,-95.48 130.0533,-99.36 l 2.9734,-2.29333 -53.2267,-32.92"
         style="fill:#f7a491;fill-opacity:1;fill-rule:nonzero;stroke:none;stroke-width:0.133333"
         id="path194"
         transform="matrix(0.75000002,0,0,-0.75000002,0,2000.0001)" /><path
         d="m 2964.709,390.57344 10.1334,68.4 c 0,0 -38.6134,33.09333 -61.1334,26.10667 -18.88,-5.85333 -5.9333,-32.2 -5.9333,-32.2 0,0 10.0667,-36.52 6.9733,-55.66667 -3.08,-19.13333 49.96,-6.64 49.96,-6.64"
         style="fill:#f7a491;fill-opacity:1;fill-rule:nonzero;stroke:none;stroke-width:0.133333"
         id="path196"
         transform="matrix(0.75000002,0,0,-0.75000002,0,2000.0001)" /><path
         d="m 2957.429,411.25344 c -9.68,4.86667 -28.8133,11.53334 -43.7066,13.14667 1.4266,-9.57333 2.24,-19.70667 1.0266,-27.18667 -1.4133,-8.82666 9.1067,-10.92 20.8667,-10.61333 15.3733,1.41333 29.0933,3.97333 29.0933,3.97333 l 1.9467,13.14667 c -2.92,3.29333 -6,5.90667 -9.2267,7.53333"
         style="fill:#f47458;fill-opacity:1;fill-rule:nonzero;stroke:none;stroke-width:0.133333"
         id="path198"
         transform="matrix(0.75000002,0,0,-0.75000002,0,2000.0001)" /><path
         d="m 3013.4424,311.68011 c 1.5866,0 -15.2667,76.41333 -41.36,89.54667 -26.08,13.14666 -64.9867,6.30666 -72.2934,-14.28 -8.08,-22.76 21.3867,-100.72 58.0667,-110.62667 36.6933,-9.89333 55.5867,35.36 55.5867,35.36"
         style="fill:#f7a491;fill-opacity:1;fill-rule:nonzero;stroke:none;stroke-width:0.133333"
         id="path200"
         transform="matrix(0.75000002,0,0,-0.75000002,0,2000.0001)" /><path
         d="m 2972.1624,358.90678 c -3.4134,8.82666 -2.0134,17.58666 3.1066,19.57333 5.1334,1.98667 12.0534,-3.56 15.4667,-12.38667 3.4,-8.82666 2.0133,-17.58666 -3.12,-19.57333 -5.12,-1.97333 -12.0533,3.57334 -15.4533,12.38667"
         style="fill:#f7a491;fill-opacity:1;fill-rule:nonzero;stroke:none;stroke-width:0.133333"
         id="path204"
         transform="matrix(0.75000002,0,0,-0.75000002,0,2000.0001)" /><path
         d="m 2952.7624,811.77343 c 0,0 15.1466,78.16 8.9733,137.42667 -6.1733,59.2533 -6.6533,269.7733 -6.6533,269.7733 l 23.5466,336.8267 -55.8933,1.2933 c 0,0 -66.28,-336.6533 -65.04,-328.0133 1.24,8.64 -22.2267,-237.05334 -22.2267,-237.05334 l 79.0267,-187.65333 38.2667,7.4"
         style="fill:#3c8f7c;fill-opacity:1;fill-rule:nonzero;stroke:none;stroke-width:0.133333"
         id="path206"
         transform="matrix(0.75000002,0,0,-0.75000002,0,2000.0001)" /><path
         d="m 2937.949,808.06677 c 0,0 9.88,70.37333 -2.4666,101.23999 -12.3467,30.86667 -105.8934,333.72004 -107.1334,358.41334 -1.24,24.6933 -32.3466,297.6133 -32.3466,297.6133 l -64.9867,-1.9467 -14.0667,-303.4399 29.44,-381.37337 28.5867,-96.42666 162.9733,25.92"
         style="fill:#50bfa5;fill-opacity:1;fill-rule:nonzero;stroke:none;stroke-width:0.133333"
         id="path208"
         transform="matrix(0.75000002,0,0,-0.75000002,0,2000.0001)" /><path
         d="m 2974.8424,458.97344 c 0,0 -16.0267,11.21334 -30.9734,9.92 -14.9466,-1.29333 -36.0933,-16.01333 -36.0933,-16.01333 l 2.9467,-10.64 c 0,0 38.6666,-6 39.64,-5.36 0.9733,0.65333 24.48,22.09333 24.48,22.09333"
         style="fill:#f7a491;fill-opacity:1;fill-rule:nonzero;stroke:none;stroke-width:0.133333"
         id="path210"
         transform="matrix(0.75000002,0,0,-0.75000002,0,2000.0001)" /><path
         d="m 2774.8157,704.6401 c 8.5333,-49.54666 29.56,-140.78666 46.0133,-168.21333 7.2134,-12.01333 39.3067,-90.79999 87.12,-83.89333 33.2667,4.81334 66.8934,6.44 66.8934,6.44 0,0 29.7066,5.2 42.7733,18.28 13.08,13.06667 16.5467,49.21333 -2.24,117.84 -14.84,54.17333 -33.2267,83.92 -42.32,123.37333 -1.84,13.24 -3.4267,26.29333 -5.52,41.54666 -3.3467,59.01334 0.04,136.94667 0.04,136.94667 0,0 -161.7333,35.81333 -222.2267,-18.52 0,0 20.72,-123.04 29.4667,-173.8"
         style="fill:#355389;fill-opacity:1;fill-rule:nonzero;stroke:none;stroke-width:0.133333"
         id="path212"
         transform="matrix(0.75000002,0,0,-0.75000002,0,2000.0001)" /><path
         d="m 2560.9757,1121.6668 190.8133,52.28 c 5.5734,1.52 11.52,-2.9067 12.9467,-9.6534 l 20.3467,-129.9733 c 3.48,-16.5067 3.16,-34.58667 -10.4667,-38.32 l -166.6933,-45.68 c -5.2934,-1.44 -11,2.50666 -12.7334,8.84 l -40.6666,148.4133 c -1.7334,6.3334 1.16,12.64 6.4533,14.0934"
         style="fill:#b75742;fill-opacity:1;fill-rule:nonzero;stroke:none;stroke-width:0.133333"
         id="path214"
         transform="matrix(0.75000002,0,0,-0.75000002,0,2000.0001)" /><path
         d="m 2715.4157,1189.6401 41.6533,-15.9067 -22.6266,-24.2266 -18.1734,0.4533 -0.8533,39.68"
         style="fill:#b75742;fill-opacity:1;fill-rule:nonzero;stroke:none;stroke-width:0.133333"
         id="path216"
         transform="matrix(0.75000002,0,0,-0.75000002,0,2000.0001)" /><path
         d="m 2639.3624,979.77343 11.8933,3.26667 10.7733,-39.30667 c 2.3734,-8.69333 10.24,-14.14667 17.52,-12.14667 l 25.6534,7.02667 c 7.28,2 11.2666,10.69333 8.88,19.38667 l -10.76,39.30666 11.8933,3.25334 10.7733,-39.30667 c 4.52,-16.52 -3.0533,-33.05333 -16.8933,-36.85333 l -25.6533,-7.02667 c -13.84,-3.78667 -28.7867,6.57333 -33.32,23.10667 l -10.76,39.29333"
         style="fill:#b75742;fill-opacity:1;fill-rule:nonzero;stroke:none;stroke-width:0.133333"
         id="path218"
         transform="matrix(0.75000002,0,0,-0.75000002,0,2000.0001)" /><path
         d="m 2774.6157,996.0001 c -4.1067,-1.12 -188.88,-51.76 -195.0667,-53.45334 -5.04,-1.37333 -10.48,2.12 -12.4933,8.02667 l -1.52,3.57333 v 0 l -67.7067,159.65334 c -1.8133,4.2933 0.4534,9.2133 4.8934,10.6 40.0933,12.56 212.52,65.2133 212.52,65.2133 4.4266,1.2134 30.2533,-118.6266 40.4,-166.6266 1.8266,-8.6134 12.3733,-12.4267 19.1733,-6.3067 12.1867,10.9733 6.0933,42.0533 6.0933,42.0533 l 0.8,-2.8666 3.3734,-21.5467 c 3.48,-16.5067 3.16,-34.58667 -10.4667,-38.32"
         style="fill:#f47458;fill-opacity:1;fill-rule:nonzero;stroke:none;stroke-width:0.133333"
         id="path220"
         transform="matrix(0.75000002,0,0,-0.75000002,0,2000.0001)" /><path
         d="m 2715.1757,902.18676 c 0,0 -3.7467,-1.14666 -16.3867,2.81334 -12.6533,3.96 -25.2933,19.8 -24.08,26.36 1.2267,6.54666 10.52,6.54666 10.52,6.54666 0,0 2.1334,11.28 7.16,12.64 5.0267,1.37334 9.9067,3.97334 12.1867,6.56 2.2933,2.58667 12.9467,5.48 20.88,-1.22666 7.92,-6.69334 23.2,-41.8 23.2,-41.8 0,0 107.8267,-117.56 114.68,-143.62667 6.8667,-26.05333 41.6,-142.59999 41.6,-142.59999 l -75.88,-9.14667 c 0,0 -21.9333,84.56 -28.7867,107.86667 -6.8666,23.32 -85.0933,175.61332 -85.0933,175.61332"
         style="fill:#f7a491;fill-opacity:1;fill-rule:nonzero;stroke:none;stroke-width:0.133333"
         id="path222"
         transform="matrix(0.75000002,0,0,-0.75000002,0,2000.0001)" /><path
         d="m 2810.5224,639.2801 c 0,0 82.8266,24.24 86.1866,22.69334 2.1734,-0.98667 51.6,-100.61333 46.36,-160.78667 -2.8933,-33.27999 -39.0133,-55.39999 -63.4666,-44.03999 -16.9467,7.86666 -22.36,16.01333 -42.1067,61.75999 -19.7467,45.74667 -26.9733,120.37333 -26.9733,120.37333"
         style="fill:#13375b;fill-opacity:1;fill-rule:nonzero;stroke:none;stroke-width:0.133333"
         id="path224"
         transform="matrix(0.75000002,0,0,-0.75000002,0,2000.0001)" /><path
         d="m 2716.6424,1084.4801 -161.5334,-49.3067 -3.0266,-25.2133 c -0.24,-2.0133 1.2,-3.8267 3.2,-4.0667 2.0133,-0.2533 3.8266,1.1867 4.0666,3.1867 l 2.4534,20.4933 152.9466,46.68 18.12,-16.8533 c 1.48,-1.3733 3.7867,-1.28 5.16,0.1867 1.3734,1.48 1.2934,3.8 -0.1866,5.1733 l -21.2,19.72"
         style="fill:#b75742;fill-opacity:1;fill-rule:nonzero;stroke:none;stroke-width:0.133333"
         id="path226"
         transform="matrix(0.75000002,0,0,-0.75000002,0,2000.0001)" /><path
         d="m 2680.1224,761.66677 c 0,0 -17.76,-5.44 -18.4,-16.8 0,0 -2.1067,6.48 2.7866,11.68 4.8934,5.18666 15.6134,5.12 15.6134,5.12"
         style="fill:#f47458;fill-opacity:1;fill-rule:nonzero;stroke:none;stroke-width:0.133333"
         id="path228"
         transform="matrix(0.75000002,0,0,-0.75000002,0,2000.0001)" /><path
         d="m 2674.109,778.89343 -70.6533,27.52 -36.96,-94.90666 70.64,-27.52 36.9733,94.90666"
         style="fill:#355389;fill-opacity:1;fill-rule:nonzero;stroke:none;stroke-width:0.133333"
         id="path230"
         transform="matrix(0.75000002,0,0,-0.75000002,0,2000.0001)" /><path
         d="m 2654.6024,729.4801 c 0,0 -21.0267,-2.90666 -21.64,3.65334 -0.6,6.54666 26.36,10.36 28.04,12.64 1.68,2.29333 -1.9867,-13.86667 -1.9867,-13.86667 l -4.4133,-2.42667"
         style="fill:#f7a491;fill-opacity:1;fill-rule:nonzero;stroke:none;stroke-width:0.133333"
         id="path232"
         transform="matrix(0.75000002,0,0,-0.75000002,0,2000.0001)" /><g
         id="g234"
         transform="matrix(0.123454,0,0,0.123454,750.78182,382.89998)"><path
           d="m 15783.8,3872.86 c 0,0 89.1,-88.05 91,-120.37 2,-32.32 8,-378.6 -28.4,-410.92 -36.4,-32.32 -143.1,-55.24 -108.8,-91.61 25.9,-27.46 225.5,-21.55 357.9,-14.18 38.5,2.11 87,314.45 102.3,360.38 22.2,66.58 102.2,211.74 82,258.15 -9.8,22.68 -82.9,74.28 -149.3,117.7 -69.7,45.68 -136.4,147.34 -136.4,147.34 l -210.3,-246.49"
           style="fill:#f7a491;fill-opacity:1;fill-rule:nonzero;stroke:none"
           id="path236" /></g><g
         id="g238"
         transform="matrix(0.111348,0,0,0.111348,750.78182,382.89998)"><path
           d="m 16179.1,4054.03 c 0,0 76.5,-219.04 87.2,-250.03 0.8,-2.24 33.7,-142.7 33.7,-179.07 0,-136.96 -609.1,116.12 -472.6,176.83 12.4,5.48 51.1,49.3 55.3,95.91 6.2,71.76 -51.4,161.84 -51.4,161.84 l 347.8,-5.48"
           style="fill:#f7a491;fill-opacity:1;fill-rule:nonzero;stroke:none"
           id="path240" /></g><g
         id="g242"
         transform="matrix(0.110858,0,0,0.110858,750.78182,382.89998)"><path
           d="M 15406.4,8896.31 15185,8322.79 c 0,0 -144.5,-1368.78 -60.4,-2188.11 35.2,-342.69 797,-2177.1 797,-2177.1 l 378.4,54.12 -506.8,2172.23 186.5,830.7 263.9,1642.01 -837.2,239.67"
           style="fill:#184655;fill-opacity:1;fill-rule:nonzero;stroke:none"
           id="path244" /></g><g
         id="g246"
         transform="matrix(0.121781,0,0,0.121781,750.78182,382.89998)"><path
           d="m 14974.3,8071.21 173,-581.37 263.1,-1754.71 889.6,-1641.39 c 0,0 -133.8,-205.37 -277.5,-237.72 l -1262.6,1658.96 -684.3,2076.85 24,461.4 874.7,17.98"
           style="fill:#355389;fill-opacity:1;fill-rule:nonzero;stroke:none"
           id="path248" /></g><g
         id="g250"
         transform="matrix(0.107172,0,0,0.107172,750.78182,382.89998)"><path
           d="m 16085.8,9612.49 c 19.4,51.44 214.2,1071.11 214.2,1071.11 l -484.7,-51.3 -141.4,-863.22 c -171,78.63 -314.3,144.63 -314.3,144.63 0,0 -283.6,128.39 -295.9,147.99 -10.5,16.6 14.8,24.6 -62.9,156.1 -22.4,37.9 -78.2,69.1 -78.2,69.1 0,0 -68.9,37.7 -82.4,24.6 -13.5,-13.2 -10.9,-36.7 -1.2,-48.3 9.8,-11.5 38.9,-23.3 48.7,-34.9 9.7,-11.6 6.2,-58.7 -1.3,-74.1 -7.5,-15.4 -206.8,102.4 -206.8,102.4 0,0 -55.4,36.4 -73,49.9 -14.8,11.5 -56.8,49.4 -56.8,49.4 0,0 -73.7,57 -88.6,37.2 -18.2,-24.1 217.8,-224.1 210.1,-236.9 -9.3,-15.5 -120.1,46.6 -120.1,46.6 0,0 -45.4,41 -70.4,52.1 -23.6,29.7 -84.5,65.7 -100.9,40.5 -3,-4.7 62,-73.6 62,-73.6 0,0 44.2,-37.7 64.3,-56.9 35.1,-34 99.8,-66.7 125.5,-87.8 21.2,-17.6 8.9,-18.7 8.8,-21.8 -0.1,-2.4 -31.7,16.6 -75.6,41.9 -22.1,12.7 -49.7,22.4 -73.1,41.1 -21.6,17.3 -54.8,37 -75,48.3 -57.4,32 -67.6,-8.8 -19.1,-47.2 18.6,-14.6 38.8,-30.3 59.5,-46.2 80,-61.8 165.9,-101.11 162.4,-111.2 -4.5,-13.09 -156.7,67.8 -156.7,67.8 0,0 -94.7,20.8 -22.9,-35.8 83.3,-65.68 160.1,-98.62 163.6,-99.88 23.6,-8.52 97.5,-62.98 184,-80.03 86.5,-17.04 225,-39.65 225,-39.65 68,-38.5 624.9,-377.8 960.9,-575.03 l 246.3,299.65 c -28.1,12.62 -82.2,37.29 -150.3,68.4 9.3,12.7 14.9,21.27 16.3,25.03"
           style="fill:#f8a492;fill-opacity:1;fill-rule:nonzero;stroke:none"
           id="path252" /></g><g
         id="g254"
         transform="matrix(0.107179,0,0,0.107179,750.78182,382.89998)"><path
           d="m 15716.6,10339.5 557.8,-57.7 c 0,0 25.6,463.5 25.6,684.6 0,268.2 -35.5,602.3 -67.6,594.9 -89.6,-20.9 -197.4,-59.7 -269.3,-159.8 -248.9,-346.6 -246.5,-1062 -246.5,-1062"
           style="fill:#3c8f7c;fill-opacity:1;fill-rule:nonzero;stroke:none"
           id="path256" /></g><g
         id="g258"
         transform="matrix(0.123561,0,0,0.123561,750.78182,382.89998)"><path
           d="m 16112.2,3971.47 c 0,0 -187.4,-574.62 -267.6,-602.86 -21.4,-7.44 -141.2,-37.88 -160.6,-83.68 -0.5,-1.14 -0.9,-2.51 -1.2,-4.13 -6.2,-29.05 18.2,-55.84 47.9,-55.84 h 380.7 c 0,0 54.1,257.84 75.5,371.15 0,0 113.1,276.79 100.6,301.95 -12.7,25.17 -175.3,73.41 -175.3,73.41"
           style="fill:#184655;fill-opacity:1;fill-rule:nonzero;stroke:none"
           id="path260" /></g><g
         id="g262"
         transform="matrix(0.111585,0,0,0.111585,750.78182,382.89998)"><path
           d="m 16300,3572.18 -68.1,223.77 c 0,0 -147.6,-63.63 -220.7,-53.23 -73.1,10.48 -215.7,52.25 -215.7,52.25 -291.8,-97.33 -530.7,-144.56 -487.2,-222.79 v 0 h 991.7"
           style="fill:#184655;fill-opacity:1;fill-rule:nonzero;stroke:none"
           id="path264" /></g><g
         id="g266"
         transform="matrix(0.115512,0,0,0.115512,750.78182,382.89998)"><path
           d="m 15721.2,10756.6 c 0,0 274,-38.1 346.1,-91 81.2,-59.7 232.7,-297.5 232.7,-297.5 0,0 -423.4,-1539.73 -403.2,-1806.54 20.3,-266.73 77.7,-661.84 77.7,-661.84 0,0 -1016.4,-64.15 -1401.4,87.78 0,0 121.5,604.45 121.5,763.2 0,158.72 68.3,1745.2 116.9,1828.3 48.6,83 146.6,130.3 332.3,170.9 185.6,40.5 577.4,6.7 577.4,6.7"
           style="fill:#50bfa5;fill-opacity:1;fill-rule:nonzero;stroke:none"
           id="path268" /></g><g
         id="g270"
         transform="matrix(0.111361,0,0,0.111361,750.78182,382.89998)"><path
           d="m 16229.6,11601.6 70.4,-460.6 c 0,0 -245.7,-392.9 -399.1,-345.4 -128.6,39.9 -60.7,369.7 -60.7,369.7 0,0 24.5,91.2 40.3,192.6 10.8,70.1 17.4,145.1 8.9,198.4 -21.2,130.4 340.2,45.3 340.2,45.3"
           style="fill:#f7a491;fill-opacity:1;fill-rule:nonzero;stroke:none"
           id="path272" /></g><g
         id="g274"
         transform="matrix(0.11092,0,0,0.11092,750.78182,382.89998)"><path
           d="m 15952.5,11602.3 c -21.1,130.9 341.6,45.4 341.6,45.4 l 5.9,-38.3 c -10.6,-25.7 -23.5,-47.6 -39.3,-64.5 -81.1,-86.6 -207.7,-138.6 -317.3,-142.6 11,70.6 17.8,146.3 9.1,200"
           style="fill:#f47458;fill-opacity:1;fill-rule:nonzero;stroke:none"
           id="path276" /></g><g
         id="g278"
         transform="matrix(0.111844,0,0,0.111844,750.78182,382.89998)"><path
           d="m 16218.5,12200.2 c 10.1,3.6 81.5,-522.3 -53.9,-667 -135.3,-144.7 -399.1,-192.1 -493.7,-78.1 -104.7,126.1 -99.4,691.3 111.1,840.2 210.4,148.8 436.5,-95.1 436.5,-95.1"
           style="fill:#f7a491;fill-opacity:1;fill-rule:nonzero;stroke:none"
           id="path280" /></g><g
         id="g282"
         transform="matrix(0.113726,0,0,0.113726,750.78182,382.89998)"><path
           d="m 15662.6,12319.4 c 160,-32.4 410.1,-170.3 512,-338 125.4,-206.2 32.8,-434.6 -113.2,-546.7 -145.8,-112.1 -144.2,-242.2 -144.2,-242.2 l -22.7,67.6 c -17,50.7 -24,104.5 -18.3,157.7 3.4,32 10.3,66.5 23.6,94.9 35.1,74.8 -75.4,124.6 -106.4,186.8 -23.8,48 -25,157.7 -62.6,237 l -44.9,60.5 c 0,0 -101.1,61.3 -204.9,57.4 -62.6,-2.3 -23.6,306.6 181.6,265"
           style="fill:#f47458;fill-opacity:1;fill-rule:nonzero;stroke:none"
           id="path284" /></g><g
         id="g286"
         transform="matrix(0.111174,0,0,0.111174,750.78182,382.89998)"><path
           d="m 16163,11874 c -1.1,-64.5 28.5,-117.4 66,-118 37.5,-0.6 68.8,51.2 69.9,115.7 1.1,64.6 -28.4,117.4 -66,118.1 -37.5,0.6 -68.8,-51.2 -69.9,-115.8"
           style="fill:#f7a491;fill-opacity:1;fill-rule:nonzero;stroke:none"
           id="path288" /></g><g
         id="g290"
         transform="matrix(0.114411,0,0,0.114411,750.78182,382.89998)"><path
           d="m 16300,3478.34 h -227.7 v 171.75 h 227.7 v -171.75"
           style="fill:#13375b;fill-opacity:1;fill-rule:nonzero;stroke:none"
           id="path292" /></g><g
         id="g294"
         transform="matrix(0.121198,0,0,0.121198,750.78182,382.89998)"><path
           d="m 15593.3,6921.64 c 0,19.14 14.3,34.82 31.9,34.82 h 546.2 c 17.5,0 31.8,-15.68 31.8,-34.82 v -964.45 h 96.8 v 964.45 c 0,77.48 -57.7,140.51 -128.6,140.51 h -546.2 c -71,0 -128.7,-63.03 -128.7,-140.51 v -964.45 h 96.8 v 964.45"
           style="fill:#355389;fill-opacity:1;fill-rule:nonzero;stroke:none"
           id="path296" /></g><g
         id="g298"
         transform="matrix(0.125228,0,0,0.125228,750.78182,382.89998)"><path
           d="m 16065.5,3170.77 -1265.3,70.99 c -67.7,0 -122.5,57.58 -122.5,128.57 l -120,2250.85 c -3.7,157.47 174.8,182.31 242.5,182.31 H 16177 c 67.7,0 122.4,-57.58 122.4,-128.57 V 3370.33 c 0.6,-119.47 -116.9,-197.48 -233.9,-199.56"
           style="fill:#f47458;fill-opacity:1;fill-rule:nonzero;stroke:none"
           id="path300" /></g><g
         id="g302"
         transform="matrix(0.124299,0,0,0.124299,750.78182,382.89998)"><path
           d="m 16173.6,3194.71 h -1381 c -69.8,0 -126.5,56.64 -126.5,126.39 v 2328.08 c 0,69.83 56.7,126.39 126.5,126.39 h 1381 c 69.8,0 126.4,-56.56 126.4,-126.39 V 3321.1 c 0,-69.75 -56.6,-126.39 -126.4,-126.39"
           style="fill:#b75742;fill-opacity:1;fill-rule:nonzero;stroke:none"
           id="path304" /></g><g
         id="g306"
         transform="matrix(0.121988,0,0,0.121988,750.78182,382.89998)"><path
           d="m 16300,3255.25 h -1032.6 v 1430.47 c 0,217.89 176.6,394.46 394.4,394.46 h 243.7 c 217.9,0 394.5,-176.57 394.5,-394.46 V 3255.25"
           style="fill:#f47458;fill-opacity:1;fill-rule:nonzero;stroke:none"
           id="path308" /></g><g
         id="g310"
         transform="matrix(0.121012,0,0,0.121012,750.78182,382.89998)"><path
           d="m 15946.1,6105.66 c 131.8,0 243.6,-58.42 248.1,-128.66 h 105.8 c -4,115.61 -160.8,208.57 -353.9,208.57 -193.2,0 -350,-92.96 -354,-208.57 h 105.8 c 4.6,70.24 116.4,128.66 248.2,128.66"
           style="fill:#13375b;fill-opacity:1;fill-rule:nonzero;stroke:none"
           id="path312" /></g><g
         id="g314"
         transform="matrix(0.120315,0,0,0.120315,750.78182,382.89998)"><path
           d="m 16251.6,6999.52 h -466.9 c -26.7,0 -48.3,21.61 -48.3,48.37 v 39.23 c 0,26.69 21.6,48.3 48.3,48.3 h 466.9 c 26.7,0 48.4,-21.61 48.4,-48.3 v -39.23 c 0,-26.76 -21.7,-48.37 -48.4,-48.37"
           style="fill:#13375b;fill-opacity:1;fill-rule:nonzero;stroke:none"
           id="path316" /></g><g
         id="g318"
         transform="matrix(0.119385,0,0,0.119385,750.78182,382.89998)"><path
           d="m 15534.7,9373.17 c 0,0 344.6,-603.04 361.8,-763.83 17.3,-160.81 69.1,-1119.72 69.1,-1119.72 0,0 -69.1,-413.7 -34.7,-448.13 34.6,-34.43 132.1,-22.95 160.9,-28.73 21.2,-4.27 89.8,4.1 123.9,8.71 12.9,1.76 25.2,5.28 37,10.47 l 47.3,21.95 c 0,0 -98.8,390.24 -96.1,418.64 2.7,28.39 83.1,1096.6 37.2,1309.1 -46,212.49 -356.1,924.63 -356.1,924.63 l -350.3,-333.09"
           style="fill:#f8a492;fill-opacity:1;fill-rule:nonzero;stroke:none"
           id="path320" /></g><g
         id="g322"
         transform="matrix(0.118069,0,0,0.118069,750.78182,382.89998)"><path
           d="m 16300,9429.27 -468.2,-243.88 c 0,0 -152.2,355.27 -251.6,565.22 -100.7,212.54 39.2,710.59 146.3,681.69 239.6,-64.4 573.5,-1003.03 573.5,-1003.03"
           style="fill:#96d9c9;fill-opacity:1;fill-rule:nonzero;stroke:none"
           id="path324" /></g><g
         id="g386"
         transform="matrix(0.139039,0,0,0.139039,750.78182,382.89998)"><path
           d="m 15915.9,6037.82 c 0,0 15.1,37.97 19.2,50.99 4.7,15.32 15.4,62.14 15.4,62.14 0,0 29.8,164.99 17.4,166.21 -12.3,1.23 -33.3,-24.23 -38.7,-33.8 -5.4,-9.49 -12.6,-20.14 -18,-29.7 -5.4,-9.5 -17,-13.38 -29.3,-7.48 -12.4,5.89 0.9,48.55 8.5,62.43 23.4,43.15 109.5,145.78 118.1,157.07 10.2,13.31 9.1,308.98 16.8,410.32 0,0 0,0 -0.1,0 7.6,166.22 7.1,337.49 7.8,355.1 l -174.1,691.08 228.4,162.38 c 0,0 204.1,-764.23 209.9,-803.62 2.8,-18.74 -44.7,-402.64 -44.8,-402.64 -35.3,-187.57 -66.9,-352.78 -72.1,-384.71 0,0 10.2,-99.54 20.5,-162.62 10.2,-63 -5.7,-125.07 -5.5,-143.27 0.1,-2.66 3.9,-65.09 -19.6,-138.23 -20.3,-63.01 -30.1,6.47 -30.1,6.47 0,0 16.5,123.78 6.5,123.56 -7.7,-0.21 -12.7,-68.39 -34.5,-138.37 -5.5,-17.98 -11.1,-35.75 -16.4,-52 -13.8,-42.65 -44.1,-46.04 -36.8,1 2.6,16.62 7.5,44.09 13.9,63.15 6.7,20.57 6.4,41.79 9.4,59.98 6.1,36.18 11,62.43 9.4,61.93 -2.1,-0.72 -6,7.34 -12.6,-11.51 -7.8,-22.73 -13.7,-74.87 -27.9,-107.38 -8,-18.41 -22.4,-57.97 -22.4,-57.97 0,0 -30.5,-61.49 -34.3,-60.63 -21.3,4.75 -12.3,55.17 2,78.69 1.2,19.77 17.6,60.91 17.6,60.91 0,0 14.2,90.91 1.3,93.36 -10.6,1.94 -86.9,-208.72 -107.9,-202.46 -17.1,5.18 3,69.62 3,69.62"
           style="fill:#f7a491;fill-opacity:1;fill-rule:nonzero;stroke:none"
           id="path388" /></g><g
         id="g390"
         transform="matrix(0.138636,0,0,0.138636,750.78182,382.89998)"><path
           d="m 15956,7552.73 c 0,0 124.1,-0.85 192.2,11.43 90.8,16.35 151.8,34.02 151.8,34.02 0,0 -21.5,416.75 -94.4,680.58 -30.2,109.04 -70.1,166.24 -136.1,190.08 -0.3,0.15 -160.2,-68.3 -195.3,-296.08 -8.2,-53.49 81.8,-620.03 81.8,-620.03"
           style="fill:#b75742;fill-opacity:1;fill-rule:nonzero;stroke:none"
           id="path392" /></g><g
         id="g394"
         transform="matrix(0.132874,0,0,0.132874,750.78182,382.89998)"><path
           d="m 16300,6493.88 -165.3,-1521.13 c 0,0 80.8,-321.74 71,-413.1 -9.7,-91.37 -179.7,-1290.24 -179.7,-1290.24 l 7.2,-67.28 0.2,-198.61 h -630.9 c 0,0 133.8,61.78 321.2,183.85 13.8,8.96 45.7,37.79 53.5,95.13 50,369.53 -48.9,1602.12 -48.9,1602.12 l -78,1604.37 649.7,4.89"
           style="fill:#f7a491;fill-opacity:1;fill-rule:nonzero;stroke:none"
           id="path396" /></g><g
         id="g398"
         transform="matrix(0.14079,0,0,0.14079,750.78182,382.89998)"><path
           d="m 15862,5826.83 c 33.6,-8.81 85.4,-1243.2 113.3,-1297.89 176.5,-346.9 218.5,-1401.38 218.5,-1401.38 l 52.6,-153.49 53.6,-182.4 c 0,0 -176.3,-46.73 -268.7,5.83 l 10.2,181.54 9.4,166 -445.4,1313.79 -243.8,1340.08 500.3,27.92"
           style="fill:#f7a491;fill-opacity:1;fill-rule:nonzero;stroke:none"
           id="path400" /></g><g
         id="g402"
         transform="matrix(0.136905,0,0,0.136905,750.78182,382.89998)"><path
           d="m 15401.2,8451.23 c 73.8,103.97 378.7,405.15 412.6,404.53 98.7,-1.78 422.8,-1.91 486.2,-35.03 l -3.1,-573.37 c -10.3,-48.11 -234.1,-797.77 -221.1,-961.87 l -1.5,-1.53 c -187.5,-186.41 -483.3,-171.72 -654.7,32.43 h -0.1 c 0,0 0.8,227.4 -25.6,434.83 -41.3,324.95 -176.3,441.73 7.3,700.01"
           style="fill:#f47458;fill-opacity:1;fill-rule:nonzero;stroke:none"
           id="path404" /></g><g
         id="g406"
         transform="matrix(0.137888,0,0,0.137888,750.78182,382.89998)"><path
           d="m 15024.5,5304.24 -21.6,869.7 c -3.7,245.77 44.9,489.31 142.4,713.11 l 164.4,377.19 c 66.4,-21.75 129.1,-40.32 199,-48.37 151.9,-17.55 301.4,-0.14 452.5,17.69 0.6,-5.87 1.2,-11.02 2.1,-15.37 27.5,-128.07 180.3,-413.6 244.6,-803.84 73,-442.97 92.1,-1057.17 83,-1109.17 -423.1,-101.89 -856.7,-105.3 -1266.4,-0.94"
           style="fill:#184655;fill-opacity:1;fill-rule:nonzero;stroke:none"
           id="path408" /></g><g
         id="g410"
         transform="matrix(0.134101,0,0,0.134101,750.78182,382.89998)"><path
           d="m 16245.9,9370.46 c 0,0 -8.7,-215.95 10.2,-297.82 18.8,-81.88 43.9,-88.07 -117.8,-112.99 -63.6,-9.78 -124.9,-24.38 -124.9,-24.38 0,0 16.7,120.24 19.1,170.99 4.2,83.59 -18.6,341.71 -18.6,341.71 l 232,-77.51"
           style="fill:#f7a491;fill-opacity:1;fill-rule:nonzero;stroke:none"
           id="path412" /></g><g
         id="g414"
         transform="matrix(0.133568,0,0,0.133568,750.78182,382.89998)"><path
           d="m 16187,9299.93 c -33.4,-18.6 -64.6,-29.57 -93.4,-34.13 -5.6,102.38 -15.9,219.84 -15.9,219.84 l 222.3,-74.23 c -25.8,-44.35 -62.5,-83.38 -113,-111.48"
           style="fill:#f47458;fill-opacity:1;fill-rule:nonzero;stroke:none"
           id="path416" /></g><g
         id="g418"
         transform="matrix(0.140809,0,0,0.140809,750.78182,382.89998)"><path
           d="m 16039.4,2979.35 c 81.4,-37.28 168.8,-14.77 204.1,-2.84 l 11.7,-32.46 44.8,-153.89 c 0,0 -178.5,-45.59 -270.9,6.96 l 10.3,182.23"
           style="fill:#13375b;fill-opacity:1;fill-rule:nonzero;stroke:none"
           id="path420" /></g><g
         id="g422"
         transform="matrix(0.130864,0,0,0.130864,750.78182,382.89998)"><path
           d="m 16286.3,2999.61 h -665.9 c -24.7,2.29 -30.7,23 -22.2,35.76 17.7,26.36 95.3,45.62 182.6,87.49 153.2,-16.58 474.6,92.24 498.8,128.84 14,-73.2 20.4,-248.96 6.7,-252.09"
           style="fill:#13375b;fill-opacity:1;fill-rule:nonzero;stroke:none"
           id="path424" /></g><g
         id="g426"
         transform="matrix(0.132921,0,0,0.132921,750.78182,382.89998)"><path
           d="m 16300,6703.88 v -283.93 c 0,-147.6 -119.6,-267.22 -267.2,-267.22 h -274.9 v 661.82 h 431.4 c 29.6,0 56.4,-11.59 76.2,-30.47 21.3,-20.09 34.5,-48.6 34.5,-80.2"
           style="fill:#b75742;fill-opacity:1;fill-rule:nonzero;stroke:none"
           id="path428" /></g><g
         id="g430"
         transform="matrix(0.133301,0,0,0.133301,750.78182,382.89998)"><path
           d="m 16252.4,6674.28 -81.4,1.65 45.8,2214.03 c -85.3,-15.76 -156.8,-79.01 -180.9,-164.51 l -566.5,-1999.33 -78.3,22.21 566.4,1999.32 c 37.9,133.98 161.7,227.55 300.9,227.55 h 41.6 l -47.6,-2300.92"
           style="fill:#b75742;fill-opacity:1;fill-rule:nonzero;stroke:none"
           id="path432" /></g><g
         id="g434"
         transform="matrix(0.132164,0,0,0.132164,750.78182,382.89998)"><path
           d="m 16295.8,8398.27 -347.9,62.75 -271.7,-626.47 -0.7,0.3 c -37.3,-60.2 -550,-633.86 -550,-633.86 l -0.1,-0.23 -4.8,-3.02 -99.7,-16.65 c 0,0 -185.1,-62.72 -184.2,-85.05 0.9,-22.24 84.5,1.89 96.7,1.21 6.5,-0.37 20.2,-1.74 32.6,-6.13 -27.7,-20.73 -71.7,-54.02 -99.3,-61.06 -63.3,-16.19 -139.6,-23.53 -145.5,-34.04 -6.7,-11.96 97.4,-18.39 166.9,-7.19 28.5,4.54 43.4,16.49 56.2,16.8 17.4,0.45 -8.5,-18.39 -56.1,-25.96 -27.1,-4.23 -77.3,-0.6 -107.7,-3.1 -49.8,-4.16 -76,-13.62 -79,-18.31 -5.1,-7.94 149.7,-19.67 149.7,-19.67 0,0 96.4,8.93 117.5,14.6 0,0 14.4,-2.12 -9.2,-12.26 -9.5,-4.08 -77.1,-22.7 -77.1,-22.7 0,0 -114.7,34.73 -122.1,4.77 -2.2,-8.93 120.6,-42.98 120.6,-42.98 0,0 105.5,19.68 130.4,25.8 46.3,11.28 141.1,44.95 261,178.19 106.1,84.14 579.5,526.47 646.8,628.73 126.3,189.89 380.9,687.78 376.7,685.53"
           style="fill:#f8a492;fill-opacity:1;fill-rule:nonzero;stroke:none"
           id="path436" /></g><g
         id="g438"
         transform="matrix(0.134336,0,0,0.134336,750.78182,382.89998)"><path
           d="m 16253.3,8739.42 c 46.7,-198.01 -202.5,-639.5 -202.5,-639.5 0,0 -355,172.42 -417.4,246.71 0,0 241.2,428.43 257,454.48 71.5,117.92 168.6,118.06 232,110.37 50.9,-6.17 130.9,-172.06 130.9,-172.06"
           style="fill:#b75742;fill-opacity:1;fill-rule:nonzero;stroke:none"
           id="path440" /></g><g
         id="g442"
         transform="matrix(0.141121,0,0,0.141121,750.78182,382.89998)"><path
           d="m 15882.9,7657.38 c 391.9,121.08 286.9,476.63 284.7,463.13 1.2,10.97 38.1,55.75 56.4,94.02 76,159.41 -24.3,351.43 -139.3,417.83 76.2,202.73 0.5,397.22 -143.1,478.27 -72.4,40.9 -133.4,99.07 -182.4,166.36 -108.8,149.31 -306.5,299.63 -544.2,250.55 -235.2,-61.95 79.7,-202.2 48.5,-435.13 -15.8,-118.08 29.6,-101.15 100.5,-196.07 -102,-184.55 -43,-494.34 113.4,-634.85 -76.7,-332.56 5.6,-727.66 405.5,-604.11"
           style="fill:#355389;fill-opacity:1;fill-rule:nonzero;stroke:none"
           id="path444" /></g><g
         id="g446"
         transform="matrix(0.132718,0,0,0.132718,750.78182,382.89998)"><path
           d="m 16211.8,9677.27 c 0,-54.44 19.7,-98.58 44,-98.58 24.5,0 44.2,44.14 44.2,98.58 0,54.44 -19.7,98.58 -44.2,98.58 -24.3,0 -44,-44.14 -44,-98.58"
           style="fill:#f7a491;fill-opacity:1;fill-rule:nonzero;stroke:none"
           id="path448" /></g><g
         id="g450"
         transform="matrix(0.132641,0,0,0.132641,750.78182,382.89998)"><path
           d="m 16300,6798.45 h -1.8 c -56.9,0 -102.9,-46.06 -102.9,-102.91 v -209.29 c 0,-177.01 -143.6,-320.49 -320.5,-320.49 H 15707 c -177,0 -320.4,143.48 -320.4,320.49 v 208.24 c 0,74.26 60.1,134.49 134.4,134.49 h 702.6 c 29.7,0 56.5,-11.6 76.4,-30.53"
           style="fill:#f47458;fill-opacity:1;fill-rule:nonzero;stroke:none"
           id="path452" /></g><g
         id="g454"
         transform="matrix(0.13539,0,0,0.13539,750.78182,382.89998)"><path
           d="m 16251.8,9675.81 c 48.2,-204.82 -213,-353.54 -419.7,-358.98 -134.4,-3.53 -196.2,10.67 -218,156.45 -35.2,236.45 59.5,380.6 192.1,440.25 171.1,76.98 405.8,-68.75 445.6,-237.72"
           style="fill:#355389;fill-opacity:1;fill-rule:nonzero;stroke:none"
           id="path456" /></g><g
         id="g458"
         transform="matrix(0.134026,0,0,0.134026,750.78182,382.89998)"><path
           d="m 16110.3,9913.43 c 0,0 91.8,-31.82 140.8,-127.27 48.9,-95.44 24.6,-401.09 -179.1,-501.89 -203.7,-100.79 -297.3,128.1 -282.5,297.01 14.8,168.9 73.7,389.91 320.8,332.15"
           style="fill:#f7a491;fill-opacity:1;fill-rule:nonzero;stroke:none"
           id="path460" /></g><g
         id="g462"
         transform="matrix(0.134467,0,0,0.134467,750.78182,382.89998)"><path
           d="m 16270,9523.56 c 30,157.44 18.2,276.76 -90.5,334.38 -108.6,57.61 -201.5,114.73 -298.8,11.18 l -21.9,-12.75 c 0,0 183.4,-52.21 193.7,-152.52 10.3,-100.32 107.8,-219.57 92.8,-268.83 -15,-49.27 -32.3,-147.54 -32.3,-147.54 l 40.1,34.01 c 0,0 86.8,44.63 116.9,202.07"
           style="fill:#355389;fill-opacity:1;fill-rule:nonzero;stroke:none"
           id="path464" /></g><g
         id="g466"
         transform="matrix(0.133659,0,0,0.133659,750.78182,382.89998)"><path
           d="m 16178,9641.76 c -15.2,-43.74 -3.7,-87.66 25.8,-98.08 29.4,-10.43 65.7,16.57 80.9,60.32 15.3,43.74 3.8,87.66 -25.7,98.09 -29.5,10.42 -65.8,-16.58 -81,-60.33"
           style="fill:#f7a491;fill-opacity:1;fill-rule:nonzero;stroke:none"
           id="path468" /></g><path
         d="m 2499.5224,808.85343 h -72.2134 v -7.30666 c 0,-19.94667 16.16,-36.10667 36.1067,-36.10667 v 0 c 19.9467,0 36.1067,16.16 36.1067,36.10667 v 7.30666"
         style="fill:#13375b;fill-opacity:1;fill-rule:nonzero;stroke:none;stroke-width:0.133333"
         id="path588"
         transform="matrix(0.75000002,0,0,-0.75000002,0,2000.0001)" /><path
         d="m 2466.9224,778.38677 h -6.7067 v -33.52 h 6.7067 v 33.52"
         style="fill:#13375b;fill-opacity:1;fill-rule:nonzero;stroke:none;stroke-width:0.133333"
         id="path590"
         transform="matrix(0.75000002,0,0,-0.75000002,0,2000.0001)" /><path
         d="m 2470.7357,747.61344 c 0,3.28 -3.3867,5.93333 -7.5467,5.93333 -4.16,0 -7.5466,-2.65333 -7.5466,-5.93333 0,-3.29334 3.3866,-5.94667 7.5466,-5.94667 4.16,0 7.5467,2.65333 7.5467,5.94667"
         style="fill:#13375b;fill-opacity:1;fill-rule:nonzero;stroke:none;stroke-width:0.133333"
         id="path592"
         transform="matrix(0.75000002,0,0,-0.75000002,0,2000.0001)" /><path
         d="m 2983.2957,241.64009 c 20.84,12.82667 30.4133,31.85334 33.6267,39.64 9.7866,4.96 21.6133,15.66667 27.2933,44.53334 6.9867,35.49333 -17.8533,62.85333 -44.1733,71.09333 -26.3334,8.22666 -30.5067,26.08 -30.5067,26.08 l -2.88,-19.26667 c 0,0 5.8667,-17.42667 14.6667,-26.14667 8.8133,-8.72 -4.1734,-21.42666 -5.3067,-31.78666 -0.88,-7.98667 4.6267,-23.48 3.4267,-36.57333 0,0 -14.6267,-23.66667 -29.0534,-29.52 -24.5733,-9.96 6.1734,-54.50667 32.9067,-38.05334"
         style="fill:#13375b;fill-opacity:1;fill-rule:nonzero;stroke:none;stroke-width:0.133333"
         id="path202"
         inkscape:transform-center-x="-150.41226"
         inkscape:transform-center-y="253.98443"
         transform="matrix(0.75000002,0,0,-0.75000002,0,2000.0001)" /><g
         id="g852"
         transform="translate(-844.14017,-333.92498)"><g
           id="g106"
           transform="scale(0.197711)"><path
             d="m 16016.5,2526.06 h -4098.4 c -156.6,0 -283.5,114.36 -283.5,255.52 l 2.5,401.1 4662.9,-0.61 v -400.49 c 0,-141.16 -127,-255.52 -283.5,-255.52"
             style="fill:#9bc1f9;fill-opacity:1;fill-rule:nonzero;stroke:none"
             id="path108" /></g><g
           id="g18"
           transform="scale(0.214147)"><path
             d="m 15112,2670.64 c 0,0 793.1,445.67 921.9,664.82 128.8,219.2 -79.3,219.06 -79.3,219.06 0,0 345.4,377.35 285.2,524.22 -60.2,146.9 -244.1,-7.52 -244.1,-7.52 0,0 207.1,543.6 93,589.83 -212.4,86.07 -457.6,-574.84 -457.6,-574.84 0,0 36.1,328.79 -105.8,312.54 -214,-24.47 -172.9,-577.97 -172.9,-577.97 0,0 -54,104.09 -179.3,27.55 -225,-137.33 -61.1,-1177.69 -61.1,-1177.69"
             style="fill:#96d9c9;fill-opacity:1;fill-rule:nonzero;stroke:none"
             id="path20" /></g><g
           id="g22"
           transform="scale(0.211372)"><path
             d="m 15339.4,3888.69 c 127,77.54 136.4,11.64 136.4,11.64 0,0 -64.9,514.69 253.4,556.18 143.4,18.73 120.6,-227.47 120.6,-227.47 0,0 235,580.41 450.2,493.21 l -994.8,-2014.13 c -15.7,135.68 -178.7,1050.61 34.2,1180.57"
             style="fill:#3c8f7c;fill-opacity:1;fill-rule:nonzero;stroke:none"
             id="path24" /></g><g
           id="g26"
           transform="scale(0.222352)"><path
             d="m 14603.4,2575.01 c 0,0 946.8,0.99 1142.3,165.1 195.4,164.11 -44.3,176.88 -44.3,176.88 0,0 452.5,240.21 445.9,400.36 -6.6,160.2 -160,127.91 -160,127.91 0,0 312.7,280.18 248.5,416 -98.7,208.68 -546,-187.13 -546,-187.13 0,0 34.2,158.75 -104.5,191.9 -209.2,50.01 -421.5,-544.86 -421.5,-544.86 0,0 100.1,268 -43.6,238.23 -257.9,-53.43 -516.8,-984.39 -516.8,-984.39"
             style="fill:#3c8f7c;fill-opacity:1;fill-rule:nonzero;stroke:none"
             id="path28" /></g><g
           id="g30"
           transform="scale(0.206867)"><path
             d="m 15587,2624.93 c 0,0 -826.7,950.99 -893.5,1294.16 -66.8,343.17 177.6,315.86 177.6,315.86 0,0 -249.9,579.4 -104.6,742.36 145.3,162.97 313.1,-121.39 313.1,-121.39 0,0 -20,799.79 149.1,807.56 314.9,14.49 382.9,-856.28 382.9,-856.28 0,0 51.3,344.35 228,258.38 266.3,-129.65 -40.2,-828.75 -40.2,-828.75 0,0 144,256.93 271.6,100.35 229,-281 -484,-1712.25 -484,-1712.25"
             style="fill:#3c8f7c;fill-opacity:1;fill-rule:nonzero;stroke:none"
             id="path32" /></g><g
           id="g34"
           transform="scale(0.206821)"><path
             d="m 16114.2,4371.32 c -155.9,128.52 -240.9,34.76 -240.9,34.76 0,0 236.2,530.95 -30.2,660.63 -176.7,85.99 -228,-258.44 -228,-258.44 0,0 -68,870.96 -383,856.47 l 364.3,-3028.3 c 140.3,-27.13 703.6,1581.8 517.8,1734.88"
             style="fill:#50bfa5;fill-opacity:1;fill-rule:nonzero;stroke:none"
             id="path36" /></g><g
           id="g38"
           transform="scale(0.196629)"><path
             d="m 16300,2588.83 c 0,0 -890.2,659.16 -1003.4,765.3 -113.1,106.14 105.6,115.29 105.6,115.29 0,0 -284.4,195.14 -276.7,293.75 7.7,98.66 140.5,41.35 140.5,41.35 0,0 -216.6,284.29 -160,333.21 105.5,91.04 357.3,-205.87 357.3,-205.87 0,0 -72.4,138.74 11.4,155.73 126.4,25.63 267.4,-403.2 267.4,-403.2 0,0 74.2,313.08 159.6,291.16 153.1,-39.41 398.3,-1386.72 398.3,-1386.72"
             style="fill:#50bfa5;fill-opacity:1;fill-rule:nonzero;stroke:none"
             id="path40" /></g><g
           id="g42"
           transform="scale(0.211103)"><path
             d="m 14880.5,1870.41 h 1178.1 c 150,152.54 241.4,362.58 238,593.03 -1.6,116.39 -23.2,217.86 -68,317.43 l -1518.9,-19 c -42,-101.18 -64.5,-212.36 -62.8,-328.74 3.1,-219.52 91.7,-417.43 233.6,-562.72"
             style="fill:#b75742;fill-opacity:1;fill-rule:nonzero;stroke:none"
             id="path44" /></g><g
           id="g46"
           transform="scale(0.167566)"><path
             d="m 15131.2,3592.09 c 0,0 922.4,707.6 1045.6,1008.26 123.2,300.59 -140,262.7 -140,262.7 0,0 226.9,325 124,499.92 -102.8,174.92 -165.8,161.19 -165.8,161.19 0,0 163.4,725.24 10.8,763.02 -284.4,70.37 -474.7,-810.22 -474.7,-810.22 0,0 -14,422.52 -190.5,376.21 -266.3,-69.77 -113.9,-762.51 -113.9,-762.51 0,0 -87.2,121.86 -231.9,2.33 -259.7,-214.49 136.4,-1500.9 136.4,-1500.9"
             style="fill:#96d9c9;fill-opacity:1;fill-rule:nonzero;stroke:none"
             id="path48" /></g><g
           id="g50"
           transform="scale(0.164541)"><path
             d="m 15230.4,5167.65 c 147.5,121.79 171.3,39.68 171.3,39.68 0,0 -176.3,642.64 220.8,753.43 179.1,49.96 195,-267.23 195,-267.23 0,0 192.9,780.88 482.5,709.22 l -897.8,-2742.51 c -44.8,169.69 -418.8,1303.38 -171.8,1507.41"
             style="fill:#3c8f7c;fill-opacity:1;fill-rule:nonzero;stroke:none"
             id="path52" /></g><g
           id="g54"
           transform="scale(0.178943)"><path
             d="m 14191.8,3199.68 c 0,0 1176.5,1.23 1419.3,205.15 242.9,203.92 -55,219.79 -55,219.79 0,0 562.3,298.47 554.1,497.48 -8.3,199.06 -198.8,158.93 -198.8,158.93 0,0 388.6,348.16 308.8,516.92 -122.6,259.31 -678.4,-232.53 -678.4,-232.53 0,0 42.5,197.27 -129.9,238.46 -260,62.14 -523.7,-677.03 -523.7,-677.03 0,0 124.3,333.01 -54.3,296.01 -320.4,-66.39 -642.1,-1223.18 -642.1,-1223.18"
             style="fill:#3c8f7c;fill-opacity:1;fill-rule:nonzero;stroke:none"
             id="path56" /></g><g
           id="g58"
           transform="scale(0.163457)"><path
             d="m 15397.6,3322.04 c 0,0 -1046.1,1203.55 -1130.7,1637.86 -84.6,434.3 224.7,399.73 224.7,399.73 0,0 -316.3,733.29 -132.4,939.52 183.9,206.25 396.4,-153.63 396.4,-153.63 0,0 -25.4,1012.19 188.6,1022.03 398.5,18.33 484.6,-1083.69 484.6,-1083.69 0,0 65,435.8 288.5,327.01 337.1,-164.09 -50.8,-1048.85 -50.8,-1048.85 0,0 182.3,325.16 343.8,127.01 289.7,-355.63 -612.7,-2166.99 -612.7,-2166.99"
             style="fill:#3c8f7c;fill-opacity:1;fill-rule:nonzero;stroke:none"
             id="path60" /></g><g
           id="g62"
           transform="scale(0.163411)"><path
             d="m 16064.9,5532.55 c -197.4,162.66 -304.9,44 -304.9,44 0,0 298.9,671.99 -38.3,836.12 -223.5,108.83 -288.5,-327.1 -288.5,-327.1 0,0 -86.1,1102.34 -484.8,1083.99 l 461.1,-3832.76 c 177.6,-34.33 890.5,2002.01 655.4,2195.75"
             style="fill:#50bfa5;fill-opacity:1;fill-rule:nonzero;stroke:none"
             id="path64" /></g><g
           id="g66"
           transform="scale(0.15322)"><path
             d="m 16300,3322.28 c 0,0 -1149.4,1137.44 -1295.7,1320.25 -146.3,182.81 134.2,196.26 134.2,196.26 0,0 -367,336.9 -358.1,505.67 8.9,168.78 179.9,69.38 179.9,69.38 0,0 -280.9,488.84 -208.7,571.99 134.4,154.81 460.7,-356.03 460.7,-356.03 0,0 -94.4,238.22 13,266.42 162,42.55 347.4,-692.86 347.4,-692.86 0,0 92.1,535.18 201.8,496.67 197,-68.98 525.5,-2377.75 525.5,-2377.75"
             style="fill:#50bfa5;fill-opacity:1;fill-rule:nonzero;stroke:none"
             id="path68" /></g><g
           id="g70"
           transform="scale(0.167693)"><path
             d="m 14513,2354.6 h 1483.1 c 188.8,192.01 303.9,456.43 299.7,746.54 -2.1,146.52 -29.2,274.25 -85.7,399.6 l -1912,-23.91 c -52.9,-127.38 -81.2,-267.34 -79.1,-413.86 4,-276.33 115.5,-525.48 294,-708.37"
             style="fill:#b75742;fill-opacity:1;fill-rule:nonzero;stroke:none"
             id="path72" /></g><g
           id="g74"
           transform="scale(0.19188)"><path
             d="m 14731.6,4823 h 1209 c 198.5,0 359.4,-160.93 359.4,-359.44 V 3353.39 h -1927.8 v 1110.17 c 0,198.51 160.9,359.44 359.4,359.44"
             style="fill:#355389;fill-opacity:1;fill-rule:nonzero;stroke:none"
             id="path76" /></g><g
           id="g78"
           transform="scale(0.186831)"><path
             d="m 13354.6,4953.35 h 2566.8 c 209.1,0 378.6,-169.52 378.6,-378.63 V 3365.55 h -3324 v 1209.17 c 0,209.11 169.5,378.63 378.6,378.63"
             style="fill:#466eb6;fill-opacity:1;fill-rule:nonzero;stroke:none"
             id="path80" /></g><g
           id="g82"
           transform="scale(0.196111)"><path
             d="m 16300,1992.9 -788.8,-7.95 29.6,2111.71 743.6,-4.44 15.6,-2099.32"
             style="fill:#355389;fill-opacity:1;fill-rule:nonzero;stroke:none"
             id="path84" /></g><g
           id="g86"
           transform="scale(0.202124)"><path
             d="m 16300,3639.6 c 0,180.04 -205.1,326.68 -461.4,332.57 v 0.24 0 c -280,2.58 -508.8,-170.04 -508.8,-383.92 v -931.21 h 484.1 l 10.4,671.87 c 262,1.28 475.7,127.49 475.7,310.45"
             style="fill:#355389;fill-opacity:1;fill-rule:nonzero;stroke:none"
             id="path88" /></g><g
           id="g94"
           transform="scale(0.156293)"><path
             d="m 15045.4,4680.58 c 0,218.69 265.2,396.82 596.6,403.92 v 0.32 0 c 362.1,3.14 658,-206.54 658,-466.31 V 3487.43 h -626.1 l -15.7,788.97 c -338.9,1.6 -612.8,181.97 -612.8,404.18"
             style="fill:#355389;fill-opacity:1;fill-rule:nonzero;stroke:none"
             id="path96" /></g><g
           id="g98"
           transform="scale(0.14725)"><path
             d="m 15061.3,4968.03 c 0,232.12 261.9,421.18 589.1,428.72 l -0.1,0.34 h 0.1 c 357.4,3.33 649.6,-219.22 649.6,-494.94 V 3701.6 l -675.3,-1.63 v 527.34 l -3.5,313.75 c -334.5,1.7 -559.9,191.11 -559.9,426.97"
             style="fill:#9bc1f9;fill-opacity:1;fill-rule:nonzero;stroke:none"
             id="path100" /></g><g
           id="g102"
           transform="scale(0.197641)"><path
             d="m 16300,2924.4 -4660.6,0.1 -0.3,-946.97 H 16300 v 946.87"
             style="fill:#355389;fill-opacity:1;fill-rule:nonzero;stroke:none"
             id="path104" /></g><g
           id="g326"
           transform="scale(0.203647)"><path
             d="m 16300,3620.54 c 0,168.23 -203.6,305.28 -457.9,310.78 v 0.25 0 c -277.9,2.4 -505,-158.91 -505,-358.81 v -870.28 h 480.5 l 9.7,566.96 c 260,1.23 472.7,180.12 472.7,351.1"
             style="fill:#9bc1f9;fill-opacity:1;fill-rule:nonzero;stroke:none"
             id="path328" /></g><g
           id="g508"
           transform="scale(0.168575)"><path
             d="m 16300,5562.99 -77.9,36.6 c 0,0 -42.1,0 -86.8,-79.31 -44.8,-79.31 -268.5,-784.99 -252.2,-959.87 16.2,-174.88 91.5,-246.06 91.5,-246.06 l 287.8,629.39 37.6,619.25"
             style="fill:#f48c7f;fill-opacity:1;fill-rule:nonzero;stroke:none"
             id="path510" /></g><g
           id="g512"
           transform="scale(0.16908)"><path
             d="m 16174.3,5584.58 c 0,0 -41.9,15.85 -112.2,-113.91 -70.3,-129.76 -173,-521.76 -173,-521.76 l 310.8,-102.73 35.2,73.04 64.9,629.88 -125.7,35.48"
             style="fill:#96d9c9;fill-opacity:1;fill-rule:nonzero;stroke:none"
             id="path514" /></g><g
           id="g516"
           transform="scale(0.178975)"><path
             d="m 15657.5,5329.74 c -82.8,-0.11 -287.8,-23.69 -382.9,-53.41 l 62.9,-1032.61 -153.2,-406.09 873.4,11.51 c 0,0 72.8,750.84 111.1,873.42 38.3,122.59 131.2,484.93 131.2,484.93 0,0 -132.5,60.35 -345.7,97.39 -87.2,15.09 -208.3,24.98 -296.8,24.86"
             style="fill:#50bfa5;fill-opacity:1;fill-rule:nonzero;stroke:none"
             id="path518" /></g><g
           id="g520"
           transform="scale(0.174123)"><path
             d="m 15995.1,5123.38 -47.5,-469.15 c -2,-19.93 13.8,-38.25 35.9,-41.47 l 167.2,-24.29 c 21.7,-3.16 55.9,11.26 59.9,30.61 l 84.9,465.07 c 4.5,21.37 -12.3,42.22 -36.4,45.15 l -218.4,26.59 c -23,2.81 -43.5,-11.83 -45.6,-32.51"
             style="fill:#13375b;fill-opacity:1;fill-rule:nonzero;stroke:none"
             id="path522" /></g><g
           id="g524"
           transform="scale(0.17072)"><path
             d="m 16173.5,4775.18 c 0,0 -200.6,-104.85 -309.2,-154.58 -77.1,-35.26 -150.1,-92.43 -165.4,-150.3 -22.7,-85.41 35.1,-164.31 77,-212.16 70.3,-80.31 383,295.68 450.8,365.45 19.7,20.32 52,60.8 73.3,76.97 l -126.5,74.62"
             style="fill:#f7a491;fill-opacity:1;fill-rule:nonzero;stroke:none"
             id="path526" /></g><g
           id="g528"
           transform="scale(0.179301)"><path
             d="m 15519.9,3868.91 c 0,0 -715.1,95.59 -856.6,22.92 -141.4,-72.67 263.9,-405.35 263.9,-405.35 0,0 389.6,23.37 504.6,22.7 114,-0.62 462.8,-26.49 665.5,0.28 202.7,26.71 179.7,340.32 141.5,378.52 -38.2,38.26 -718.9,-19.07 -718.9,-19.07"
             style="fill:#b75742;fill-opacity:1;fill-rule:nonzero;stroke:none"
             id="path530" /></g><g
           id="g532"
           transform="scale(0.167824)"><path
             d="m 16077.4,2679.06 c 0,0 25.9,-73.53 -19,-122.57 -45,-49.04 -232.9,-98.08 -257.4,-124.6 -24.5,-26.57 -22.5,-49.04 -22.5,-49.04 l 520.9,4.11 0.6,157.43 -25.1,104.04 -197.5,30.63"
             style="fill:#f7a491;fill-opacity:1;fill-rule:nonzero;stroke:none"
             id="path534" /></g><g
           id="g536"
           transform="scale(0.168119)"><path
             d="m 15997.5,2527.55 c 0,0 136,-48.95 201.2,-19.03 65.3,29.86 63.2,38.01 82.3,27.18 19,-10.88 13.2,-163.16 13.2,-163.16 l -584.9,-8.14 c 0,0 -5.4,67.98 40.8,92.43 46.3,24.45 247.4,70.72 247.4,70.72"
             style="fill:#3c8f7c;fill-opacity:1;fill-rule:nonzero;stroke:none"
             id="path538" /></g><g
           id="g540"
           transform="scale(0.167712)"><path
             d="m 15906.9,4057.19 c -49.4,73.93 -185.3,117.16 -185.3,117.16 0,0 -70.9,29.99 -177.2,-40.84 -106.3,-70.9 -76.3,-275.3 -10.9,-417.03 65.4,-141.73 484.4,-971.6 509,-1088.77 l 257.5,22.48 c 0,0 -123.3,676.58 -153.3,840.07 -28.9,157.36 -154.3,438.97 -239.8,566.93"
             style="fill:#f47458;fill-opacity:1;fill-rule:nonzero;stroke:none"
             id="path542" /></g><g
           id="g544"
           transform="scale(0.176441)"><path
             d="m 16034.5,2714 c 0,0 -20.1,-210.49 -57,-268.76 -36.9,-58.32 1.9,-157.39 3.9,-170.99 1.9,-13.6 77.7,-33.04 198.2,-21.37 120.4,11.68 118.5,36.9 108.8,77.71 -9.8,40.81 -73.9,93.29 -77.8,132.11 -3.8,38.88 37,178.76 37,178.76 l -213.1,72.54"
             style="fill:#f7a491;fill-opacity:1;fill-rule:nonzero;stroke:none"
             id="path546" /></g><g
           id="g548"
           transform="scale(0.176581)"><path
             d="m 16179.6,2222.61 c 120.4,11.66 105.5,65.35 95.8,106.12 -6.1,25.54 -33.4,55.67 -54.1,84.1 -10.7,-7.76 -35.4,-21.52 -87.6,-35.56 -54.3,-14.56 -137.5,11.49 -184.9,29.56 -16.9,-57.09 -8.9,-127.19 -7.3,-138.24 1.9,-13.59 117.8,-57.59 238.1,-45.98"
             style="fill:#3c8f7c;fill-opacity:1;fill-rule:nonzero;stroke:none"
             id="path550" /></g><g
           id="g552"
           transform="scale(0.17982)"><path
             d="m 15817.1,3512.02 c -29.5,-168.06 -146.2,-1009.12 -146.2,-1009.12 l 282.1,-31.81 c 0,0 347,1096.87 329.2,1264.6 -17.8,167.78 -139.8,155.1 -139.8,155.1 0,0 -256.7,12.68 -325.3,-378.77"
             style="fill:#f47458;fill-opacity:1;fill-rule:nonzero;stroke:none"
             id="path554" /></g><g
           id="g556"
           transform="scale(0.173365)"><path
             d="m 16204.2,4811.47 c 0,0 46.5,51.91 62.2,77.75 33.6,55.38 13.9,102.44 -10.9,49.43 -24.9,-53.01 -74.7,-87.5 -74.7,-87.5 0,0 43.7,64.84 54.4,92.75 4.3,11.2 15.4,41.19 11.9,52.78 -5.2,17.37 -28.8,9.4 -42.2,-36.28 -9.3,-31.84 -34.5,-51.05 -67.1,-79.31 -45.2,-39.17 -90.3,-59.47 -95.1,-50.53 -6.2,11.71 -4.3,52.03 -4.3,52.03 -27.6,-15.11 -53,-40.15 -62.1,-57.16 -18.4,-34.21 -47.3,-118.77 -47.3,-118.77 -16.7,-15.86 -34.7,-30.86 -49.6,-48.51 0,0 97.9,-118.25 113.8,-77.29 2.8,7.44 20.8,14.99 40.3,30.39 42.5,33.57 109,86.87 158.6,132.9 53,49.32 86.2,103.2 81.4,108.62 -11.2,12.86 -69.3,-41.3 -69.3,-41.3"
             style="fill:#f7a491;fill-opacity:1;fill-rule:nonzero;stroke:none"
             id="path558" /></g><g
           id="g560"
           transform="scale(0.175163)"><path
             d="m 16074.6,5586.18 -36.2,-139.92 c 0,0 -12.6,-199.88 32.2,-245.15 44.7,-45.27 188,227.05 188,227.05 l 41.4,348.45 -225.4,-190.43"
             style="fill:#f7a491;fill-opacity:1;fill-rule:nonzero;stroke:none"
             id="path562" /></g><g
           id="g564"
           transform="scale(0.175156)"><path
             d="m 16049.9,5489.26 c 85.3,13.14 205.8,104.37 250.1,285.89 l -224.9,-188.77 -25.2,-97.12"
             style="fill:#f47458;fill-opacity:1;fill-rule:nonzero;stroke:none"
             id="path566" /></g><g
           id="g568"
           transform="scale(0.175602)"><path
             d="m 16041.7,6097.11 c -53.5,1.01 -102.2,-35.53 -121.9,-88.83 -16.3,-44.19 -24,-104.46 -37.8,-179.86 -25.7,-138.86 38,-272.86 106.6,-284.14 68.6,-11.21 233.1,31.9 272.4,228.6 16.8,84.31 39,194.9 -29.4,254.25 -53.2,46.17 -128.4,68.82 -189.9,69.98"
             style="fill:#f7a491;fill-opacity:1;fill-rule:nonzero;stroke:none"
             id="path570" /></g><g
           id="g572"
           transform="scale(0.177848)"><path
             d="m 16037.1,5549.84 c 0,0 236.8,212.36 249.9,379.39 13,167.04 -139.5,259.02 -270.9,265.73 -59.5,3.02 -99.7,0.98 -161.2,-5.82 -132.1,-14.62 -218.4,-71.93 -190,-180.79 38.1,-146.15 313.5,-27.65 368.8,-73.68 45.5,-38 -30.7,-126.48 13.6,-161.38 41.7,-32.8 21,-23.1 6.1,-84.01 -14.9,-60.91 -16.3,-139.44 -16.3,-139.44"
             style="fill:#f7cc7f;fill-opacity:1;fill-rule:nonzero;stroke:none"
             id="path574" /></g><g
           id="g576"
           transform="scale(0.175947)"><path
             d="m 16289.1,5797.95 c -10.8,-39.48 -38.9,-66.18 -62.7,-59.64 -23.8,6.54 -34.4,43.85 -23.5,83.33 10.8,39.48 38.9,66.18 62.7,59.64 23.8,-6.54 34.4,-43.85 23.5,-83.33"
             style="fill:#f7a491;fill-opacity:1;fill-rule:nonzero;stroke:none"
             id="path578" /></g><g
           id="g580"
           transform="scale(0.181075)"><path
             d="m 16112.5,5146.75 c -101.6,37.28 -127.3,-1043.16 -127.3,-1043.16 -94.3,-62.4 -387.2,-259.34 -450.6,-290.32 -25.8,-12.53 -94.9,-25.4 -121.4,-36.56 -27,-11.43 -50.8,-23.03 -61.9,-32.3 -4,-3.43 -99.3,-127.13 -103.4,-144.42 -5,-21.43 -20.2,-76.98 -5,-88.36 15.1,-11.32 44.2,82.07 44.2,82.07 l 20.6,35.01 c -16.2,-59.26 -60.2,-150.55 -39,-161.98 20.8,-11.15 57.2,76.6 84.1,137.68 -18.8,-59.42 -30.3,-152.75 -12.6,-155.96 15.8,-2.87 28.1,104.6 76.4,161.65 17.8,21.09 53.7,12.42 73.1,20.15 14.3,5.75 37.1,13.42 47.8,24.47 l 55.1,56.99 c 23.8,11.16 50.6,22.64 76.2,31.2 29.8,9.95 71.9,29.72 110.5,41.37 222.1,66.88 277.7,82.01 345.8,93.39 68.2,11.37 100.7,188.65 110.4,464.88 10.8,307.55 64.5,735.5 -123,804.2"
             style="fill:#f7a491;fill-opacity:1;fill-rule:nonzero;stroke:none"
             id="path582" /></g><g
           id="g584"
           transform="scale(0.180869)"><path
             d="m 16279,4437.13 c 14.9,294.68 21,653.51 -148.1,715.49 -66.8,24.49 -133.5,-415.72 -171.5,-721.46 90.3,-7.3 222.8,-13.16 319.6,5.97"
             style="fill:#96d9c9;fill-opacity:1;fill-rule:nonzero;stroke:none"
             id="path586" /></g></g><g
         id="g1914"
         transform="translate(991.08179)"><g
           id="g166"
           transform="matrix(0.105129,0,0,0.105129,-1695.4475,-473.28496)"><path
             d="m 15020,16015.2 -131.6,-35.7 -80.8,205.3 -198.7,-28.5 -85.7,143.7 -72.8,-43.3 114.5,-192.3 188.5,27 84.1,-213.5 197.9,53.7 -15.4,83.6"
             style="fill:#f48c7f;fill-opacity:1;fill-rule:nonzero;stroke:none"
             id="path168" /></g><g
           id="g170"
           transform="matrix(0.166252,0,0,0.166252,-2752.8344,-383.41169)"><path
             d="m 16098.9,7909.54 78.3,-35.9 -43.8,-132.46 108.1,-66.63 -16.6,-104.49 52.9,-8.41 22.2,139.75 -102.4,63.14 45.6,137.8 -117.9,54.03 -26.4,-46.83"
             style="fill:#f48c7f;fill-opacity:1;fill-rule:nonzero;stroke:none"
             id="path172" /></g><g
           id="g178"
           transform="matrix(0.118083,0,0,0.118083,-1837.1177,-636.37746)"><path
             d="m 16298.2,14465.4 -170.4,-38.1 -38.1,-173.9 -194.1,-29.2 16.5,-197.8 -217.9,-42.7 -7.2,-184.1 -203.1,-75.3 -28.6,76.8 151.9,56.4 7.6,194.2 209.6,41 -16.8,201.1 214.1,32.2 37.2,169.9 158,35.3 1.1,116.7 82,-0.8 -1.8,-181.7"
             style="fill:#96d9c9;fill-opacity:1;fill-rule:nonzero;stroke:none"
             id="path180" /></g><g
           id="g330"
           transform="matrix(0.121009,0,0,0.121009,-1997.7466,-124.07164)"><path
             d="m 16018.8,12434.9 -97.4,140.9 -171.3,-0.4 c -19.6,0 -30.6,22.3 -18.8,37.8 l 103.9,136.2 -53.3,162.8 c -6.1,18.5 11.8,36 30.2,29.5 l 161.6,-56.7 138.3,101 c 15.8,11.5 37.8,-0.1 37.4,-19.6 l -3.9,-171.2 138.7,-100.4 c 15.8,-11.4 11.7,-36 -7,-41.6 l -164.1,-49.1 -52.6,-163 c -5.9,-18.6 -30.6,-22.2 -41.7,-6.2"
             style="fill:#f7cc7f;fill-opacity:1;fill-rule:nonzero;stroke:none"
             id="path332" /></g><g
           id="g334"
           transform="matrix(0.158798,0,0,0.158798,-2518.508,-643.12935)"><path
             d="m 16011.1,7669.72 -100.1,144.74 -176,-0.4 c -20,-0.03 -31.4,22.92 -19.3,38.85 l 106.8,139.92 -54.8,167.23 c -6.2,19.05 12.1,36.98 31,30.34 l 166,-58.27 142.2,103.75 c 16.1,11.82 38.9,-0.06 38.4,-20.1 l -4.1,-175.91 142.6,-103.12 c 16.2,-11.74 12,-37.01 -7.2,-42.76 l -168.6,-50.46 -54,-167.48 c -6.2,-19.07 -31.5,-22.81 -42.9,-6.33"
             style="fill:#f7cc7f;fill-opacity:1;fill-rule:nonzero;stroke:none"
             id="path336" /></g><g
           id="g338"
           transform="matrix(0.10736,0,0,0.10736,-1600.9544,-41.506045)"><path
             d="m 16243.8,14830.4 -291.2,32.4 -191.7,-221.6 c -21.8,-25.3 -63.2,-14.5 -69.9,18.2 l -59.2,286.9 -270,113.9 c -30.8,13 -33.3,55.6 -4.3,72.1 l 254.5,145 24.9,292 c 2.9,33.3 42.6,48.8 67.3,26.4 l 216.6,-197.4 285.3,66.6 c 32.5,7.6 59.6,-25.4 45.9,-55.8 l -120.8,-267 151.6,-250.8 c 17.2,-28.6 -5.8,-64.5 -39,-60.9"
             style="fill:#f47458;fill-opacity:1;fill-rule:nonzero;stroke:none"
             id="path340" /></g><g
           id="g342"
           transform="matrix(0.158406,0,0,0.158406,-2545.4703,-952.83543)"><path
             d="m 16027.6,8745.97 34.5,79.78 -46.2,73.61 c -5.3,8.38 1.3,19.16 11.2,18.24 l 86.5,-8.12 55.7,66.68 c 6.4,7.59 18.7,4.61 20.9,-5.05 l 19,-84.79 80.6,-32.39 c 9.2,-3.7 10.2,-16.32 1.7,-21.36 l -74.8,-44.29 -5.9,-86.7 c -0.7,-9.88 -12.4,-14.69 -19.8,-8.15 l -65.2,57.41 -84.3,-21.18 c -9.6,-2.41 -17.8,7.23 -13.9,16.31"
             style="fill:#f7cc7f;fill-opacity:1;fill-rule:nonzero;stroke:none"
             id="path344" /></g><g
           id="g346"
           transform="matrix(0.152794,0,0,0.152794,-2278.4172,-990.59864)"><path
             d="m 15851.9,8608.79 13.8,169.85 -132.2,107.59 c -15.1,12.26 -9.5,36.45 9.3,40.94 l 165.8,39.46 61.5,158.93 c 7,18.1 31.8,20.31 41.9,3.74 l 88.7,-145.47 170.2,-9.36 c 19.3,-1.07 29.1,-23.9 16.5,-38.63 l -111,-129.36 43.7,-164.72 c 5,-18.76 -13.7,-35.09 -31.6,-27.62 l -157.4,65.53 -143.1,-92.44 c -16.3,-10.53 -37.6,2.2 -36.1,21.56"
             style="fill:#f7cc7f;fill-opacity:1;fill-rule:nonzero;stroke:none"
             id="path348" /></g><g
           id="g350"
           transform="matrix(0.185994,0,0,0.185994,-2802.8713,-566.76764)"><path
             d="m 15836.3,6534.07 84.2,111.55 -44.2,132.59 c -5.1,15.1 9.4,29.42 24.4,24.22 l 132.2,-45.59 112.4,82.98 c 12.8,9.45 30.9,0.12 30.6,-15.8 l -2.5,-139.73 113.6,-81.31 c 13,-9.26 9.7,-29.34 -5.5,-33.99 l -133.7,-40.76 -42.2,-133.23 c -4.8,-15.18 -24.9,-18.25 -34,-5.21 l -80.1,114.54 -139.7,-1.04 c -16,-0.11 -25.1,18.07 -15.5,30.78"
             style="fill:#f7cc7f;fill-opacity:1;fill-rule:nonzero;stroke:none"
             id="path352" /></g><g
           id="g354"
           transform="matrix(0.142986,0,0,0.142986,-2341.7819,-187.85182)"><path
             d="m 16232.4,10694.8 2.5,-102.5 -164.5,-22.2 -14.9,-150.4 -120.4,-36.7 18.6,-60.9 161,49.1 14.1,142.5 171.2,23 -3.7,154.3 -63.9,3.8"
             style="fill:#466eb6;fill-opacity:1;fill-rule:nonzero;stroke:none"
             id="path356" /></g><g
           id="g1255"
           transform="translate(-1953.1735,-1075.4635)"><g
             id="g358"
             transform="scale(0.140739)"><path
               d="m 16120.9,11018.9 -925.8,-194.6 c -109.3,-23 -216.5,43 -239.5,147.2 l -109.8,497.9 c -23.1,104.3 46.8,207.4 156.1,230.4 l 925.8,194.7 c 109.3,22.9 216.4,-43 239.4,-147.3 l 109.9,-497.9 c 23,-104.3 -46.8,-207.4 -156.1,-230.4"
               style="fill:#fae0b2;fill-opacity:1;fill-rule:nonzero;stroke:none"
               id="path360" /></g><g
             id="g362"
             transform="scale(0.130377)"><path
               d="m 16127.6,12126 -330.1,-505.7 502.5,207.5 -172.4,298.2"
               style="fill:#fae0b2;fill-opacity:1;fill-rule:nonzero;stroke:none"
               id="path364" /></g><g
             id="g366"
             transform="scale(0.137449)"><path
               d="m 15648.6,11636.5 120.7,28.5 c 0,0 127.9,142.2 123.8,181.7 -4.2,39.5 -47.9,115.5 -26.5,130.9 21.3,15.4 69.6,34.4 113.1,-9.7 31.4,-31.9 43.2,-171.2 59.5,-177.1 10.2,-3.7 80.1,10.8 130.9,22.1 33.5,7.5 68.3,-3.4 90.5,-28.2 v -0.1 c 15,-16.8 15.6,-41.4 1.4,-59 l -22.1,-27.5 27.4,-22.4 c 20.5,-16.6 22.9,-46.1 5.4,-65.9 l -17.7,-20.2 18.2,-12.7 c 23.5,-16.4 26.8,-48.8 7,-69.5 l -16.1,-16.8 4,-4.4 c 16.6,-18.3 15.8,-45.8 -1.9,-63.4 l -16.3,-16.2 -321.7,-75.8 c -30.1,-7.1 -61.4,-8.2 -91.9,-3.3 l -117.5,-8.8 c -12.6,-1 -24,7.1 -26.7,18.9 l -62.5,269.7 c -3.1,13 5.4,26 19,29.2"
               style="fill:#ffffff;fill-opacity:1;fill-rule:nonzero;stroke:none"
               id="path368" /></g></g><g
           id="g370"
           transform="matrix(0.177878,0,0,0.177878,-2992.0542,-483.85224)"><path
             d="m 15938.8,8899.16 6.9,-143.6 133.9,-2.45 13,-141.16 127.7,-18.13 27,-104.05 52.7,13.66 -36.1,139.17 -121,17.18 -13.5,146.85 -131.8,2.41 -6.2,130.13 -52.6,-40.01"
             style="fill:#50bfa5;fill-opacity:1;fill-rule:nonzero;stroke:none"
             id="path372" /></g><g
           id="g374"
           transform="matrix(0.151825,0,0,0.151825,-2320.1647,-299.53464)"><path
             d="m 16048.4,10222.6 -11.3,95.9 152.4,35.2 0.8,142.3 109.7,44.9 -22.7,55.6 -146.8,-60.1 -0.8,-134.9 -158.4,-36.6 16.9,-144.3 60.2,2"
             style="fill:#50bfa5;fill-opacity:1;fill-rule:nonzero;stroke:none"
             id="path376" /></g><g
           id="g1271"
           transform="translate(-2789.5878,-555.63537)"><g
             id="g378"
             transform="scale(0.175725)"><path
               d="m 16254.8,7906.47 c 45.2,-106.68 16.2,-575.55 16.2,-575.55 0,0 -357.3,305.04 -402.5,411.72 -45.3,106.68 4.5,229.84 111.2,275.08 106.7,45.23 229.8,-4.58 275.1,-111.25"
               style="fill:#f47458;fill-opacity:1;fill-rule:nonzero;stroke:none"
               id="path380" /></g><g
             id="g382"
             transform="scale(0.174107)"><path
               d="m 16283.1,7927.88 c 16.9,-39.88 -1.8,-85.91 -41.6,-102.83 -39.9,-16.91 -86,1.71 -102.8,41.59 -17,39.88 1.7,85.91 41.5,102.83 39.9,16.91 86,-1.71 102.9,-41.59"
               style="fill:#ffffff;fill-opacity:1;fill-rule:nonzero;stroke:none"
               id="path384" /></g></g><g
           id="g1265"
           transform="translate(-2622.5255,-344.70345)"><g
             id="g484"
             transform="scale(0.16549)"><path
               d="m 16202.8,8925.41 -645.6,42.16 c -50.4,3.29 -88.6,46.81 -85.2,97.21 v 0 l 828,-54.07 v 0 c -3.3,-50.4 -46.8,-88.58 -97.2,-85.3"
               style="fill:#fae0b2;fill-opacity:1;fill-rule:nonzero;stroke:none"
               id="path486" /></g><g
             id="g488"
             transform="scale(0.166307)"><path
               d="m 16162.2,9129.79 c -45.5,2.97 -82.3,31.37 -80.4,62 2,30.63 42.2,53.99 87.8,51.02 45.6,-2.97 82.4,-31.37 80.3,-62 -2,-30.63 -42.1,-53.99 -87.7,-51.02 z m 10.4,159.39 c -71.9,4.69 -133.4,-37.64 -137.1,-94.36 -3.7,-56.74 51.8,-106.7 123.7,-111.4 71.9,-4.7 133.4,37.63 137.1,94.36 3.7,56.73 -51.8,106.7 -123.7,111.4"
               style="fill:#fae0b2;fill-opacity:1;fill-rule:nonzero;stroke:none"
               id="path490" /></g><g
             id="g492"
             transform="scale(0.164838)"><path
               d="m 16297.9,9465.67 c -17.1,-260.8 -181.4,-462.37 -367.1,-450.24 -185.7,12.12 -322.5,233.34 -305.4,494.15 2.1,33.1 154.4,50.11 340.1,37.98 185.7,-12.12 334.5,-48.79 332.4,-81.89"
               style="fill:#fae0b2;fill-opacity:1;fill-rule:nonzero;stroke:none"
               id="path494" /></g><g
             id="g496"
             transform="scale(0.164838)"><path
               d="m 16297.9,9465.67 c -2.2,-33.1 -154.5,-50.11 -340.2,-37.99 -185.7,12.13 -334.5,48.8 -332.3,81.9 2.1,33.1 154.4,50.11 340.1,37.98 185.7,-12.12 334.5,-48.79 332.4,-81.89"
               style="fill:#f7cc7f;fill-opacity:1;fill-rule:nonzero;stroke:none"
               id="path498" /></g></g><g
           id="g1247"
           transform="translate(-1024.3057,-78.49625)"><path
             d="m 1234.68,1452.96 -113.41,-4.89 c -13.38,-0.58 -24.7,9.8 -25.27,23.17 l -2.76,63.87 c -0.58,13.38 9.8,24.69 23.18,25.27 l 113.41,4.9 c 13.38,0.58 24.7,-9.8 25.27,-23.18 l 2.76,-63.87 c 0.58,-13.37 -9.8,-24.69 -23.18,-25.27"
             style="fill:#fae0b2;fill-opacity:1;fill-rule:nonzero;stroke:none;stroke-width:0.1"
             id="path500" /><path
             d="m 1099.55,1503.94 -45.76,-51.62 58.96,14.13 z"
             style="fill:#fae0b2;fill-opacity:1;fill-rule:nonzero;stroke:none;stroke-width:0.1"
             id="path502" /><path
             d="m 1218.91,1511.7 c 2.47,-20.78 -12.37,-39.64 -33.15,-42.11 -20.78,-2.48 -39.64,12.37 -42.11,33.15 -2.48,20.79 12.36,39.64 33.14,42.12 20.78,2.47 39.64,-12.37 42.12,-33.16"
             style="fill:#f7cc7f;fill-opacity:1;fill-rule:nonzero;stroke:none;stroke-width:0.1"
             id="path504" /><path
             d="m 1161.87,1498.87 c 1.32,-11.12 11.4,-19.05 22.51,-17.73 11.12,1.32 19.05,11.4 17.73,22.51 l -40.24,-4.78"
             style="fill:#ffffff;fill-opacity:1;fill-rule:nonzero;stroke:none;stroke-width:0.1"
             id="path506" /></g><g
           id="g1007"
           transform="translate(-1094.9941,2.9532537)"><g
             id="g470"
             transform="scale(0.100199)"><path
               d="m 13486.3,15770.7 c -157.4,40 -31.2,529.3 124.6,489.7 l -19.2,-75.5 c 0.9,-0.2 1.6,-0.2 1.8,-0.2 -13.7,-2.1 -59.8,-52.4 -86.8,-158.5 -27,-106 -10.6,-172.3 0.5,-180.8 -0.1,0.2 -0.8,0.5 -1.7,0.8 l -19.2,-75.5"
               style="fill:#50bfa5;fill-opacity:1;fill-rule:nonzero;stroke:none"
               id="path472" /></g><path
             d="m 1369.32,1566.14 16.96,-24.12 -1.69,-7.02 8.74,-3.39 8.16,-11.23 5.29,-0.92 -0.93,-5.29 8.11,-11.53 -1.87,-10.72 -11.47,0.29 -45.75,65.1 c 0,0 14.33,9.01 14.45,8.83"
             style="fill:#96d9c9;fill-opacity:1;fill-rule:nonzero;stroke:none;stroke-width:0.1"
             id="path474" /><path
             d="m 1354.8,1572.1 c -4.11,-2.89 -9.74,-1.98 -12.56,2.04 -2.82,4.01 -1.78,9.61 2.34,12.51 4.11,2.89 9.74,1.98 12.56,-2.04 2.82,-4.02 1.78,-9.62 -2.34,-12.51 z m -13.96,19.87 c -12.74,-8.95 -15.8,-26.53 -6.85,-39.27 8.95,-12.73 26.53,-15.8 39.26,-6.85 12.74,8.95 15.81,26.53 6.86,39.27 -8.96,12.73 -26.54,15.8 -39.27,6.85"
             style="fill:#96d9c9;fill-opacity:1;fill-rule:nonzero;stroke:none;stroke-width:0.1"
             id="path476" /><path
             d="m 13110.8,15559.7 c -20.7,-14.6 -49.3,-9.6 -63.8,11.1 -14.5,20.7 -9.6,49.2 11.1,63.7 20.8,14.6 49.3,9.6 63.7,-11.1 14.6,-20.7 9.6,-49.2 -11,-63.7 z m 652.1,708.7 -766.8,-538.9 c -44.9,-31.6 -55.8,-94.2 -24.3,-139.1 l 79.7,-113.4 c 31.6,-45 94.2,-55.9 139.1,-24.3 l 766.9,538.9 c 44.9,31.6 55.8,94.2 24.2,139.1 l -79.7,113.5 c -31.5,44.9 -94.2,55.8 -139.1,24.2"
             style="fill:#f7cc7f;fill-opacity:1;fill-rule:nonzero;stroke:none"
             id="path480"
             transform="scale(0.104246)" /><path
             d="m 1363.8,1629.28 c -1.7,0.43 -3.44,-0.33 -4.3,-1.76 -0.49,-1.4 -0.32,-3.01 0.6,-4.32 0.45,-0.63 1.01,-1.12 1.65,-1.45 1.1,-1.01 2.67,-7.6 0.01,-18.08 -2.67,-10.47 -7.19,-15.52 -8.64,-15.87 -2.06,0.45 -4.1,-0.8 -4.63,-2.84 -1.3,-5.14 7.09,-8.57 14.16,1.42 7.01,9.88 11.3,30.29 6.09,39.04 -1.15,1.94 -2.77,3.31 -4.94,3.86"
             style="fill:#50bfa5;fill-opacity:1;fill-rule:nonzero;stroke:none;stroke-width:0.1"
             id="path482" /></g></g></g></g></svg>
